<?xml version="1.0" encoding="UTF-8" standalone="no"?>
<svg
   width="12.989601mm"
   height="20.668167mm"
   viewBox="0 0 12.989601 20.668167"
   version="1.1"
   id="svg8"
   inkscape:version="1.0 (4035a4fb49, 2020-05-01)"
   sodipodi:docname="periochart.svg"
   xmlns:inkscape="http://www.inkscape.org/namespaces/inkscape"
   xmlns:sodipodi="http://sodipodi.sourceforge.net/DTD/sodipodi-0.dtd"
   xmlns="http://www.w3.org/2000/svg"
   xmlns:svg="http://www.w3.org/2000/svg"
   xmlns:rdf="http://www.w3.org/1999/02/22-rdf-syntax-ns#"
   xmlns:cc="http://creativecommons.org/ns#"
   xmlns:dc="http://purl.org/dc/elements/1.1/">
  <defs
     id="defs2">
    <inkscape:path-effect
       simplify_just_coalesce="false"
       simplify_individual_paths="false"
       helper_size="0"
       smooth_angles="360"
       threshold="0.000851064"
       steps="1"
       lpeversion="1"
       is_visible="true"
       id="path-effect1878"
       effect="simplify" />
    <inkscape:path-effect
       simplify_just_coalesce="false"
       simplify_individual_paths="false"
       helper_size="0"
       smooth_angles="360"
       threshold="0.000851064"
       steps="1"
       lpeversion="1"
       is_visible="true"
       id="path-effect1874"
       effect="simplify" />
  </defs>
  <sodipodi:namedview
     id="base"
     pagecolor="#ffffff"
     bordercolor="#666666"
     borderopacity="1.0"
     inkscape:pageopacity="0.0"
     inkscape:pageshadow="2"
     inkscape:zoom="0.7"
     inkscape:cx="267.0372"
     inkscape:cy="571.46134"
     inkscape:document-units="mm"
     inkscape:current-layer="layer4"
     inkscape:document-rotation="0"
     showgrid="false"
     inkscape:snap-global="false"
     inkscape:window-width="1355"
     inkscape:window-height="842"
     inkscape:window-x="-5"
     inkscape:window-y="0"
     inkscape:window-maximized="0"
     inkscape:showpageshadow="2"
     inkscape:pagecheckerboard="0"
     inkscape:deskcolor="#d1d1d1">
    <inkscape:grid
       type="xygrid"
       id="grid884" />
    <sodipodi:guide
       id="guide1093"
       orientation="1084.7244,0"
       position="-53.163965,179.70126"
       inkscape:locked="false" />
    <sodipodi:guide
       id="guide1095"
       orientation="0,755.90551"
       position="-53.163965,-107.29874"
       inkscape:locked="false" />
    <sodipodi:guide
       id="guide1097"
       orientation="-1084.7244,0"
       position="146.83604,-107.29874"
       inkscape:locked="false" />
    <sodipodi:guide
       id="guide1099"
       orientation="0,-755.90551"
       position="146.83604,179.70126"
       inkscape:locked="false" />
    <sodipodi:guide
       id="guide2864"
       orientation="93.944202,0"
       position="46.836035,61.291819"
       inkscape:locked="false" />
  </sodipodi:namedview>
  <metadata
     id="metadata5">
    <rdf:RDF>
      <cc:Work
         rdf:about="">
        <dc:format>image/svg+xml</dc:format>
        <dc:type
           rdf:resource="http://purl.org/dc/dcmitype/StillImage" />
        <dc:title />
      </cc:Work>
    </rdf:RDF>
  </metadata>
  <g
     style="display:inline"
     inkscape:groupmode="layer"
     id="layer4"
     inkscape:label="歯"
     transform="translate(-58.163965,-163.03309)">
    <g
       style="fill:#ffffff"
       id="g1883"
       transform="translate(-6.7073804,-58.737531)">
      <path
         sodipodi:nodetypes="cccccccccccccccc"
         d="m 65.015411,224.86732 c 0.175381,1.25032 1.898519,3.16749 2.388351,4.57603 0.197663,1.33951 -0.03927,2.12555 -0.396731,4.03077 -0.347425,2.39857 -1.812471,4.77095 -1.186315,7.22906 0.165757,1.41162 1.643638,2.35274 1.677271,0.28062 0.854531,-2.37183 2.063903,-4.67428 3.173379,-6.83498 0.744301,-1.47666 2.01372,-1.33436 2.109789,0.13993 0.964038,3.07568 0.400133,4.42174 -0.02943,6.26152 -0.815132,2.52562 1.487986,2.03125 2.284815,0.37711 1.639031,-3.29701 0.586614,-7.44125 1.404965,-11.00721 0.373548,-0.68616 0.577039,-1.6717 0.952307,-2.88165 0.202319,-1.1659 0.767156,-3.04146 -0.276415,-3.79777 -1.18265,-0.86248 -2.584339,-1.35566 -3.062626,-1.02426 -0.964527,0.31014 -1.825106,1.0096 -2.860755,1.06553 -3.371975,-0.96251 -1.375779,-2.09605 -4.252617,-0.7873 -1.786017,0.38829 -1.997525,1.25629 -1.925988,2.3726 z"
         style="fill:#ffffff;stroke:#000000;stroke-width:0.264583px;stroke-linecap:butt;stroke-linejoin:miter;stroke-opacity:1"
         id="path1866" />
      <path
         inkscape:original-d="m 71.177215,223.3371 c 0.02619,0.25569 -0.05011,0.50278 -0.05011,0.75169"
         inkscape:path-effect="#path-effect1874"
         id="path1872"
         d="m 71.177215,223.3371 c 0.01283,0.12418 9.73e-4,0.24916 -0.0145,0.37253 -0.01579,0.12593 -0.03558,0.25193 -0.03561,0.37916"
         style="fill:#ffffff;stroke:#000000;stroke-width:0.264583px;stroke-linecap:round;stroke-linejoin:miter;stroke-opacity:1" />
      <path
         sodipodi:nodetypes="ccc"
         inkscape:original-d="m 67.452146,229.45088 c 1.678735,-0.14251 3.364611,-0.0132 4.359835,0.41761 1.577225,-0.62684 3.852085,-0.23767 4.627103,0.0835"
         inkscape:path-effect="#path-effect1878"
         id="path1876"
         d="m 67.452146,229.45088 c 0.868482,-0.0723 1.744826,-0.0844 2.611749,0.0111 0.522188,0.0575 1.045372,0.14588 1.540886,0.32461 0.06986,0.0252 0.138098,0.10908 0.2072,0.0819 0.560343,-0.22077 1.164267,-0.31068 1.763497,-0.3296 0.682238,-0.0215 1.367909,0.0348 2.035458,0.17641 0.280806,0.0596 0.561484,0.12888 0.828148,0.23669"
         style="fill:#ffffff;stroke:#000000;stroke-width:0.264583px;stroke-linecap:round;stroke-linejoin:round;stroke-opacity:1" />
    </g>
  </g>
</svg>
