<?xml version="1.0" encoding="UTF-8" standalone="no"?>
<svg
   width="10.775455mm"
   height="19.461735mm"
   viewBox="0 0 10.775455 19.461735"
   version="1.1"
   id="svg8"
   inkscape:version="1.0 (4035a4fb49, 2020-05-01)"
   sodipodi:docname="periochart.svg"
   xmlns:inkscape="http://www.inkscape.org/namespaces/inkscape"
   xmlns:sodipodi="http://sodipodi.sourceforge.net/DTD/sodipodi-0.dtd"
   xmlns="http://www.w3.org/2000/svg"
   xmlns:svg="http://www.w3.org/2000/svg"
   xmlns:rdf="http://www.w3.org/1999/02/22-rdf-syntax-ns#"
   xmlns:cc="http://creativecommons.org/ns#"
   xmlns:dc="http://purl.org/dc/elements/1.1/">
  <defs
     id="defs2" />
  <sodipodi:namedview
     id="base"
     pagecolor="#ffffff"
     bordercolor="#666666"
     borderopacity="1.0"
     inkscape:pageopacity="0.0"
     inkscape:pageshadow="2"
     inkscape:zoom="0.7"
     inkscape:cx="267.0372"
     inkscape:cy="571.46134"
     inkscape:document-units="mm"
     inkscape:current-layer="layer4"
     inkscape:document-rotation="0"
     showgrid="false"
     inkscape:snap-global="false"
     inkscape:window-width="1355"
     inkscape:window-height="842"
     inkscape:window-x="-5"
     inkscape:window-y="0"
     inkscape:window-maximized="0"
     inkscape:showpageshadow="2"
     inkscape:pagecheckerboard="0"
     inkscape:deskcolor="#d1d1d1">
    <inkscape:grid
       type="xygrid"
       id="grid884" />
    <sodipodi:guide
       id="guide1093"
       orientation="1084.7244,0"
       position="-39.400414,41.267523"
       inkscape:locked="false" />
    <sodipodi:guide
       id="guide1095"
       orientation="0,755.90551"
       position="-39.400414,-245.73248"
       inkscape:locked="false" />
    <sodipodi:guide
       id="guide1097"
       orientation="-1084.7244,0"
       position="160.59958,-245.73248"
       inkscape:locked="false" />
    <sodipodi:guide
       id="guide1099"
       orientation="0,-755.90551"
       position="160.59958,41.267523"
       inkscape:locked="false" />
    <sodipodi:guide
       id="guide2864"
       orientation="93.944202,0"
       position="60.599585,-77.141916"
       inkscape:locked="false" />
  </sodipodi:namedview>
  <metadata
     id="metadata5">
    <rdf:RDF>
      <cc:Work
         rdf:about="">
        <dc:format>image/svg+xml</dc:format>
        <dc:type
           rdf:resource="http://purl.org/dc/dcmitype/StillImage" />
        <dc:title />
      </cc:Work>
    </rdf:RDF>
  </metadata>
  <g
     style="display:inline"
     inkscape:groupmode="layer"
     id="layer4"
     inkscape:label="歯"
     transform="translate(-44.400415,-25.805789)">
    <g
       id="g1566"
       style="fill:#ffffff"
       transform="translate(-4.2333335,-45.508356)">
      <path
         id="path1547"
         style="fill:#ffffff;stroke:#000000;stroke-width:0.264583px;stroke-linecap:butt;stroke-linejoin:miter;stroke-opacity:1"
         d="m 55.751489,74.225072 c -0.481968,-0.897597 -1.154876,-1.583023 -1.958936,-1.206404 -0.408099,-1.669617 -1.840183,-2.048519 -2.576352,-0.955726 -0.476945,-0.345809 -1.407242,-0.168646 -1.823093,1.134787 -0.717112,2.911901 1.387658,5.501086 1.240372,6.908665 0.0048,1.113316 0.01942,2.471989 -0.57673,4.183463 -0.590503,1.355306 -1.475755,1.831343 -1.25715,4.122447 0.878987,1.298595 2.275438,2.450309 3.683497,1.76724 0.556172,-0.301719 1.9585,-1.168407 1.440441,-0.681152 0.976752,0.649929 2.319908,1.805697 3.811281,0.667304 0.976847,-0.506162 1.834903,-1.058794 1.451142,-2.264122 -0.382657,-1.17436 -1.303396,-1.947595 -1.656963,-3.201435 -0.885475,-2.833535 0.01614,-7.660865 -1.777509,-10.475067 z"
         sodipodi:nodetypes="ccccccccccccc" />
      <path
         id="path1553"
         style="fill:#ffffff;stroke:#000000;stroke-width:0.264583px;stroke-linecap:butt;stroke-linejoin:miter;stroke-opacity:1"
         d="m 51.168527,72.075333 c 1.375443,1.41935 -1.396885,1.191516 1.951407,6.317172 0.296113,0.482566 0.789674,0.991784 0.89937,0.05946 0.423979,-1.912771 -1.209799,-4.761501 -0.157743,-5.455314"
         sodipodi:nodetypes="cccc" />
      <path
         id="path1558"
         style="fill:#ffffff;stroke:#000000;stroke-width:0.264583px;stroke-linecap:butt;stroke-linejoin:miter;stroke-opacity:1"
         d="m 49.98735,84.265065 c 1.025287,0.172728 2.043301,0.08648 2.988523,-0.304411 0.276441,-0.07462 0.563053,-0.180656 0.836858,-0.03906 1.413021,0.829768 2.646654,0.899511 3.757768,0.792355"
         sodipodi:nodetypes="cccc" />
    </g>
  </g>
</svg>
