<?xml version="1.0" encoding="UTF-8" standalone="no"?>
<svg
   width="7.8500519mm"
   height="21.998055mm"
   viewBox="0 0 7.8500519 21.998055"
   version="1.1"
   id="svg8"
   xmlns="http://www.w3.org/2000/svg"
   xmlns:svg="http://www.w3.org/2000/svg"
   xmlns:rdf="http://www.w3.org/1999/02/22-rdf-syntax-ns#"
   xmlns:cc="http://creativecommons.org/ns#"
   xmlns:dc="http://purl.org/dc/elements/1.1/">
  <defs
     id="defs2" />
  <metadata
     id="metadata5">
    <rdf:RDF>
      <cc:Work
         rdf:about="">
        <dc:format>image/svg+xml</dc:format>
        <dc:type
           rdf:resource="http://purl.org/dc/dcmitype/StillImage" />
        <dc:title />
      </cc:Work>
    </rdf:RDF>
  </metadata>
  <g
     style="display:inline"
     id="layer4"
     transform="translate(-66.836145,-23.678489)">
    <g
       id="g1518"
       style="fill:#ffffff"
       transform="translate(-4.2333335,-45.508356)">
      <path
         id="path1506"
         style="fill:#ffffff;stroke:#000000;stroke-width:0.264583px;stroke-linecap:butt;stroke-linejoin:miter;stroke-opacity:1"
         d="m 75.77091,71.828685 c -1.296402,-3.654008 -2.31482,-3.267799 -2.76029,0.822587 -0.125998,3.22009 -0.585543,7.960332 -0.760599,11.096609 -0.388069,1.307575 -0.780469,2.213092 -1.011168,3.572026 -0.185472,1.835065 0.320378,2.601908 1.681978,3.039553 2.078268,0.73766 1.581419,1.067502 4.12993,0.06303 1.435504,-0.676412 1.806695,-1.057054 1.726427,-2.357839 -0.17582,-1.249951 -0.62665,-3.343969 -1.60673,-4.448586 -0.417316,-3.764464 -0.926607,-9.276493 -1.399548,-11.787382 z" />
      <path
         style="fill:#ffffff;stroke:#000000;stroke-width:0.264583px;stroke-linecap:butt;stroke-linejoin:miter;stroke-opacity:1"
         d="m 72.262999,83.788994 c 0.554554,-0.229773 1.120285,-0.440434 1.70784,-0.569147 0.460359,-0.100849 0.935465,-0.14051 1.405731,-0.09929 0.623935,0.05469 1.226436,0.251462 1.797505,0.501402"
         id="path1512" />
    </g>
  </g>
</svg>
