<?xml version="1.0" encoding="UTF-8" standalone="no"?>
<svg
   width="28"
   height="120"
   viewBox="0 0 28 120"
   version="1.1"
   id="svg8"
   inkscape:version="1.2 (dc2aedaf03, 2022-05-15)"
   sodipodi:docname="mandibular_l_4.svg"
   xmlns:inkscape="http://www.inkscape.org/namespaces/inkscape"
   xmlns:sodipodi="http://sodipodi.sourceforge.net/DTD/sodipodi-0.dtd"
   xmlns="http://www.w3.org/2000/svg"
   xmlns:svg="http://www.w3.org/2000/svg"
   xmlns:rdf="http://www.w3.org/1999/02/22-rdf-syntax-ns#"
   xmlns:cc="http://creativecommons.org/ns#"
   xmlns:dc="http://purl.org/dc/elements/1.1/">
  <defs
     id="defs2">
    <inkscape:path-effect
       simplify_just_coalesce="false"
       simplify_individual_paths="false"
       helper_size="0"
       smooth_angles="360"
       threshold="0.000851064"
       steps="1"
       lpeversion="1"
       is_visible="true"
       id="path-effect1839"
       effect="simplify" />
    <inkscape:path-effect
       simplify_just_coalesce="false"
       simplify_individual_paths="false"
       helper_size="0"
       smooth_angles="360"
       threshold="0.000851064"
       steps="1"
       lpeversion="1"
       is_visible="true"
       id="path-effect1835"
       effect="simplify" />
  </defs>
  <sodipodi:namedview
     id="base"
     pagecolor="#ffffff"
     bordercolor="#666666"
     borderopacity="1.0"
     inkscape:pageopacity="0.0"
     inkscape:pageshadow="2"
     inkscape:zoom="3.959798"
     inkscape:cx="4.5456864"
     inkscape:cy="42.678945"
     inkscape:document-units="px"
     inkscape:current-layer="layer4"
     inkscape:document-rotation="0"
     showgrid="false"
     inkscape:snap-global="false"
     inkscape:window-width="1920"
     inkscape:window-height="1094"
     inkscape:window-x="-11"
     inkscape:window-y="-11"
     inkscape:window-maximized="1"
     inkscape:showpageshadow="2"
     inkscape:pagecheckerboard="0"
     inkscape:deskcolor="#d1d1d1">
    <inkscape:grid
       type="xygrid"
       id="grid884"
       originx="3.5586618e-06"
       originy="1.1798892e-06" />
    <sodipodi:guide
       id="guide1093"
       orientation="1084.7244,0"
       position="-278.40861,719.37495"
       inkscape:locked="false" />
    <sodipodi:guide
       id="guide1095"
       orientation="0,755.90551"
       position="-278.40861,-365.34947"
       inkscape:locked="false" />
    <sodipodi:guide
       id="guide1097"
       orientation="-1084.7244,0"
       position="477.49689,-365.34947"
       inkscape:locked="false" />
    <sodipodi:guide
       id="guide1099"
       orientation="0,-755.90551"
       position="477.49689,719.37495"
       inkscape:locked="false" />
    <sodipodi:guide
       id="guide2864"
       orientation="93.944202,0"
       position="99.544143,271.8432"
       inkscape:locked="false" />
  </sodipodi:namedview>
  <metadata
     id="metadata5">
    <rdf:RDF>
      <cc:Work
         rdf:about="">
        <dc:format>image/svg+xml</dc:format>
        <dc:type
           rdf:resource="http://purl.org/dc/dcmitype/StillImage" />
      </cc:Work>
    </rdf:RDF>
  </metadata>
  <g
     style="display:inline"
     inkscape:groupmode="layer"
     id="layer4"
     inkscape:label="歯"
     transform="translate(-78.662275,-162.58462)">
    <g
       id="g564"
       transform="matrix(3.6286077,0,0,3.6286077,-206.75223,-425.33093)"
       style="stroke-width:0.275574;stroke-dasharray:none">
      <path
         id="path1818"
         style="fill:#ffffff;stroke:#000000;stroke-width:0.275574;stroke-linecap:round;stroke-linejoin:round;stroke-dasharray:none;stroke-opacity:1"
         d="m 78.901452,166.84145 c 0.441138,1.51943 1.446827,2.45961 1.848231,3.91333 -0.48942,4.47372 1.199737,5.66678 1.316842,12.29164 -0.187882,1.79849 1.065237,1.7717 1.477369,0.1256 2.002843,-5.3244 0.7607,-8.37629 1.501144,-12.4024 0.339713,-0.70101 0.642534,-1.19866 0.86292,-2.20384 0.25454,-1.35329 0.486589,-2.6286 0.183782,-3.99358 -0.07112,-0.76487 -2.183107,-1.70865 -3.627316,-1.85529 -1.600234,0.7887 -1.767487,0.76667 -2.433546,1.09668 -1.775294,0.82697 -1.109901,2.28929 -1.129426,3.02786 z"
         sodipodi:nodetypes="cccccccccc" />
      <path
         id="path1823"
         style="fill:#ffffff;stroke:#000000;stroke-width:0.275574;stroke-linecap:butt;stroke-linejoin:miter;stroke-dasharray:none;stroke-opacity:1"
         d="m 80.70646,170.66324 c 1.658132,0.29314 1.935628,0.57392 4.393243,0.0835"
         sodipodi:nodetypes="cc" />
      <path
         id="path1828"
         style="fill:#ffffff;stroke:#000000;stroke-width:0.275574;stroke-linecap:round;stroke-linejoin:round;stroke-dasharray:none;stroke-opacity:1"
         d="m 79.67079,164.85013 c 0.526715,-0.16132 0.860853,0.10912 1.423917,0.82507 0.10046,0.18665 0.09007,0.34018 0.04921,0.51886 -0.002,0.0197 -0.0031,0.0395 -0.0031,0.0593"
         sodipodi:nodetypes="cccc" />
      <path
         style="fill:#ffffff;stroke:#000000;stroke-width:0.275574;stroke-linecap:round;stroke-linejoin:miter;stroke-dasharray:none;stroke-opacity:1"
         d="m 81.14077,165.65194 c 0.09512,-0.006 0.18215,-0.0514 0.260784,-0.10184 0.152272,-0.0976 0.289663,-0.21603 0.428994,-0.33081 0.254754,-0.20986 0.517506,-0.41658 0.818279,-0.55693 0.121357,-0.0566 0.263347,-0.0628 0.379537,-0.12961 0.162192,-0.0933 0.356316,-0.11805 0.540069,-0.095 0.253301,0.0318 0.49258,0.14138 0.696804,0.29202 0.25667,0.18932 0.467217,0.44842 0.57549,0.75018 0.02588,0.0721 0.04568,0.1465 0.05852,0.22208"
         id="path1833"
         inkscape:path-effect="#path-effect1835"
         inkscape:original-d="m 81.14077,165.65194 c 0.402953,-0.0197 1.018981,-0.93417 1.887594,-1.11919 0.637305,-0.36373 1.7207,0.28588 1.870882,1.1693"
         sodipodi:nodetypes="ccc" />
      <path
         style="fill:#ffffff;stroke:#000000;stroke-width:0.275574;stroke-linecap:round;stroke-linejoin:miter;stroke-dasharray:none;stroke-opacity:1"
         d="m 85.16652,164.78331 c -0.07306,0.0551 -0.14435,0.11426 -0.201422,0.18632 -0.03967,0.0501 -0.06953,0.10824 -0.08445,0.17055 -0.01866,0.078 -0.01759,0.15876 -0.01643,0.23838 6.78e-4,0.0466 0.0016,0.0932 0.0016,0.13975"
         id="path1837"
         inkscape:path-effect="#path-effect1839"
         inkscape:original-d="m 85.16652,164.78331 c -0.346816,0.2595 -0.30068,0.39255 -0.30068,0.735"
         sodipodi:nodetypes="cc" />
    </g>
  </g>
</svg>
