<?xml version="1.0" encoding="UTF-8" standalone="no"?>
<svg
   width="52"
   height="120"
   viewBox="0 0 52.000002 120"
   version="1.1"
   id="svg8"
   inkscape:version="1.2 (dc2aedaf03, 2022-05-15)"
   sodipodi:docname="mandibular_l_6.svg"
   xmlns:inkscape="http://www.inkscape.org/namespaces/inkscape"
   xmlns:sodipodi="http://sodipodi.sourceforge.net/DTD/sodipodi-0.dtd"
   xmlns="http://www.w3.org/2000/svg"
   xmlns:svg="http://www.w3.org/2000/svg"
   xmlns:rdf="http://www.w3.org/1999/02/22-rdf-syntax-ns#"
   xmlns:cc="http://creativecommons.org/ns#"
   xmlns:dc="http://purl.org/dc/elements/1.1/">
  <defs
     id="defs2">
    <inkscape:path-effect
       simplify_just_coalesce="false"
       simplify_individual_paths="false"
       helper_size="0"
       smooth_angles="360"
       threshold="0.000851064"
       steps="1"
       lpeversion="1"
       is_visible="true"
       id="path-effect1878"
       effect="simplify" />
    <inkscape:path-effect
       simplify_just_coalesce="false"
       simplify_individual_paths="false"
       helper_size="0"
       smooth_angles="360"
       threshold="0.000851064"
       steps="1"
       lpeversion="1"
       is_visible="true"
       id="path-effect1874"
       effect="simplify" />
  </defs>
  <sodipodi:namedview
     id="base"
     pagecolor="#ffffff"
     bordercolor="#666666"
     borderopacity="1.0"
     inkscape:pageopacity="0.0"
     inkscape:pageshadow="2"
     inkscape:zoom="1.979899"
     inkscape:cx="23.233508"
     inkscape:cy="52.527932"
     inkscape:document-units="px"
     inkscape:current-layer="layer4"
     inkscape:document-rotation="0"
     showgrid="false"
     inkscape:snap-global="false"
     inkscape:window-width="1920"
     inkscape:window-height="1094"
     inkscape:window-x="-11"
     inkscape:window-y="-11"
     inkscape:window-maximized="1"
     inkscape:showpageshadow="2"
     inkscape:pagecheckerboard="0"
     inkscape:deskcolor="#d1d1d1">
    <inkscape:grid
       type="xygrid"
       id="grid884"
       originx="-1.1495625e-06"
       originy="8.7953952e-06" />
    <sodipodi:guide
       id="guide1093"
       orientation="1084.7244,0"
       position="-200.93468,721.06995"
       inkscape:locked="false" />
    <sodipodi:guide
       id="guide1095"
       orientation="0,755.90551"
       position="-200.93468,-363.65446"
       inkscape:locked="false" />
    <sodipodi:guide
       id="guide1097"
       orientation="-1084.7244,0"
       position="554.97086,-363.65446"
       inkscape:locked="false" />
    <sodipodi:guide
       id="guide1099"
       orientation="0,-755.90551"
       position="554.97086,721.06995"
       inkscape:locked="false" />
    <sodipodi:guide
       id="guide2864"
       orientation="93.944202,0"
       position="177.01809,273.53821"
       inkscape:locked="false" />
  </sodipodi:namedview>
  <metadata
     id="metadata5">
    <rdf:RDF>
      <cc:Work
         rdf:about="">
        <dc:format>image/svg+xml</dc:format>
        <dc:type
           rdf:resource="http://purl.org/dc/dcmitype/StillImage" />
      </cc:Work>
    </rdf:RDF>
  </metadata>
  <g
     style="display:inline"
     inkscape:groupmode="layer"
     id="layer4"
     inkscape:label="歯"
     transform="translate(-58.163966,-163.03308)">
    <g
       style="fill:#ffffff;stroke-width:0.249516;stroke-dasharray:none"
       id="g1883"
       transform="matrix(4.0078538,0,0,4.0078538,-201.86112,-725.8213)">
      <path
         sodipodi:nodetypes="cccccccccccccccc"
         d="m 65.015411,224.86732 c 0.175381,1.25032 1.898519,3.16749 2.388351,4.57603 0.197663,1.33951 -0.03927,2.12555 -0.396731,4.03077 -0.347425,2.39857 -1.812471,4.77095 -1.186315,7.22906 0.165757,1.41162 1.643638,2.35274 1.677271,0.28062 0.854531,-2.37183 2.063903,-4.67428 3.173379,-6.83498 0.744301,-1.47666 2.01372,-1.33436 2.109789,0.13993 0.964038,3.07568 0.400133,4.42174 -0.02943,6.26152 -0.815132,2.52562 1.487986,2.03125 2.284815,0.37711 1.639031,-3.29701 0.586614,-7.44125 1.404965,-11.00721 0.373548,-0.68616 0.577039,-1.6717 0.952307,-2.88165 0.202319,-1.1659 0.767156,-3.04146 -0.276415,-3.79777 -1.18265,-0.86248 -2.584339,-1.35566 -3.062626,-1.02426 -0.964527,0.31014 -1.825106,1.0096 -2.860755,1.06553 -3.371975,-0.96251 -1.375779,-2.09605 -4.252617,-0.7873 -1.786017,0.38829 -1.997525,1.25629 -1.925988,2.3726 z"
         style="fill:#ffffff;stroke:#000000;stroke-width:0.249516;stroke-linecap:butt;stroke-linejoin:miter;stroke-dasharray:none;stroke-opacity:1"
         id="path1866" />
      <path
         inkscape:original-d="m 71.177215,223.3371 c 0.02619,0.25569 -0.05011,0.50278 -0.05011,0.75169"
         inkscape:path-effect="#path-effect1874"
         id="path1872"
         d="m 71.177215,223.3371 c 0.01262,0.12221 0.0013,0.24524 -0.01376,0.36668 -0.01591,0.12789 -0.03631,0.2558 -0.03635,0.38501"
         style="fill:#ffffff;stroke:#000000;stroke-width:0.249516;stroke-linecap:round;stroke-linejoin:miter;stroke-dasharray:none;stroke-opacity:1" />
      <path
         sodipodi:nodetypes="ccc"
         inkscape:original-d="m 67.452146,229.45088 c 1.678735,-0.14251 3.364611,-0.0132 4.359835,0.41761 1.577225,-0.62684 3.852085,-0.23767 4.627103,0.0835"
         inkscape:path-effect="#path-effect1878"
         id="path1876"
         d="m 67.452146,229.45088 c 0.856868,-0.0714 1.721284,-0.0837 2.576908,0.007 0.520568,0.0555 1.041902,0.14159 1.537358,0.31468 0.08292,0.029 0.163841,0.12767 0.245569,0.0955 0.55374,-0.21823 1.150232,-0.30839 1.742429,-0.32885 0.672505,-0.0232 1.348466,0.0301 2.007355,0.16564 0.297522,0.0612 0.595009,0.13284 0.877319,0.24671"
         style="fill:#ffffff;stroke:#000000;stroke-width:0.249516;stroke-linecap:round;stroke-linejoin:round;stroke-dasharray:none;stroke-opacity:1" />
    </g>
  </g>
</svg>
