<?xml version="1.0" encoding="UTF-8" standalone="no"?>
<svg
   width="12.477056"
   height="30"
   viewBox="0 0 12.477056 30.000001"
   version="1.1"
   id="svg8"
   inkscape:version="1.2 (dc2aedaf03, 2022-05-15)"
   sodipodi:docname="mandibular_b_7.svg"
   xmlns:inkscape="http://www.inkscape.org/namespaces/inkscape"
   xmlns:sodipodi="http://sodipodi.sourceforge.net/DTD/sodipodi-0.dtd"
   xmlns="http://www.w3.org/2000/svg"
   xmlns:svg="http://www.w3.org/2000/svg"
   xmlns:rdf="http://www.w3.org/1999/02/22-rdf-syntax-ns#"
   xmlns:cc="http://creativecommons.org/ns#"
   xmlns:dc="http://purl.org/dc/elements/1.1/">
  <defs
     id="defs2">
    <inkscape:path-effect
       simplify_just_coalesce="false"
       simplify_individual_paths="false"
       helper_size="0"
       smooth_angles="360"
       threshold="0.000851064"
       steps="1"
       lpeversion="1"
       is_visible="true"
       id="path-effect1702"
       effect="simplify" />
    <inkscape:path-effect
       simplify_just_coalesce="false"
       simplify_individual_paths="false"
       helper_size="0"
       smooth_angles="360"
       threshold="0.000851064"
       steps="1"
       lpeversion="1"
       is_visible="true"
       id="path-effect1698"
       effect="simplify" />
  </defs>
  <sodipodi:namedview
     id="base"
     pagecolor="#ffffff"
     bordercolor="#666666"
     borderopacity="1.0"
     inkscape:pageopacity="0.0"
     inkscape:pageshadow="2"
     inkscape:zoom="0.7"
     inkscape:cx="265.71429"
     inkscape:cy="572.85714"
     inkscape:document-units="px"
     inkscape:current-layer="layer4"
     inkscape:document-rotation="0"
     showgrid="false"
     inkscape:snap-global="false"
     inkscape:window-width="1355"
     inkscape:window-height="842"
     inkscape:window-x="0"
     inkscape:window-y="0"
     inkscape:window-maximized="0"
     inkscape:showpageshadow="2"
     inkscape:pagecheckerboard="0"
     inkscape:deskcolor="#d1d1d1">
    <inkscape:grid
       type="xygrid"
       id="grid884"
       originx="-3.9596486e-06"
       originy="1.2935599e-05" />
    <sodipodi:guide
       id="guide1093"
       orientation="1084.7244,0"
       position="-153.69816,814.42602"
       inkscape:locked="false" />
    <sodipodi:guide
       id="guide1095"
       orientation="0,755.90551"
       position="-153.69816,-270.29835"
       inkscape:locked="false" />
    <sodipodi:guide
       id="guide1097"
       orientation="-1084.7244,0"
       position="602.20732,-270.29835"
       inkscape:locked="false" />
    <sodipodi:guide
       id="guide1099"
       orientation="0,-755.90551"
       position="602.20734,814.42603"
       inkscape:locked="false" />
    <sodipodi:guide
       id="guide2864"
       orientation="93.944202,0"
       position="224.25459,366.89431"
       inkscape:locked="false" />
  </sodipodi:namedview>
  <metadata
     id="metadata5">
    <rdf:RDF>
      <cc:Work
         rdf:about="">
        <dc:format>image/svg+xml</dc:format>
        <dc:type
           rdf:resource="http://purl.org/dc/dcmitype/StillImage" />
      </cc:Work>
    </rdf:RDF>
  </metadata>
  <g
     style="display:inline"
     inkscape:groupmode="layer"
     id="layer4"
     inkscape:label="歯"
     transform="translate(-45.665972,-211.54606)">
    <g
       id="g1713"
       style="fill:#ffffff"
       transform="translate(-5.5031348,50.270858)">
      <path
         id="path1691"
         style="fill:#ffffff;stroke:#000000;stroke-width:0.264583px;stroke-linecap:round;stroke-linejoin:round;stroke-opacity:1"
         d="m 51.36119,165.09175 c 0.269533,1.05772 1.25285,1.41238 1.615226,2.33637 0.977557,4.48014 -2.244969,8.20667 -1.151213,10.82028 0.880246,1.81536 1.908428,1.22618 2.218683,0.13565 0.341771,-2.25668 1.185803,-4.46891 2.47897,-6.15109 0.901022,-1.01418 1.497804,-0.16108 1.65525,0.77335 0.586228,2.44677 0.384177,3.85024 -0.310883,4.88167 -0.781878,1.70745 0.542775,2.07261 1.531975,0.5787 0.690217,-0.79904 1.393572,-1.47824 1.694059,-2.22313 0.772854,-1.1641 0.200371,-3.50352 0.207733,-4.39935 -0.243097,-1.04419 0.153856,-2.73853 0.260542,-3.83171 0.73507,-0.94299 1.736147,-2.40695 1.952339,-3.92372 -0.04523,-0.72885 -0.162415,-1.65703 -0.94396,-1.93382 -0.79474,-0.33085 -1.184164,-0.53992 -1.95883,-0.74746 -0.83375,0.3857 -2.493594,0.99371 -3.415388,1.15914 -0.408103,-0.24727 -1.662605,-0.50746 -2.769785,-0.90916 -2.334316,-1.08253 -3.388805,2.14006 -3.064718,3.43428 z"
         sodipodi:nodetypes="ccccccccccccccccc" />
      <path
         style="fill:#ffffff;stroke:#000000;stroke-width:0.264583px;stroke-linecap:round;stroke-linejoin:round;stroke-opacity:1"
         d="m 57.162271,162.54998 c 0.0012,0.46802 0.04785,0.93411 0.0751,1.401 0.01194,0.20455 0.02988,0.41216 -0.0063,0.61537 -0.0213,0.11972 -0.08075,0.2377 -0.185121,0.30572 -0.132911,0.0866 -0.297093,0.10574 -0.451654,0.11675"
         id="path1696"
         inkscape:path-effect="#path-effect1698"
         inkscape:original-d="m 57.162271,162.54998 c 0.01205,1.76845 0.409807,2.37984 -0.567943,2.43884"
         sodipodi:nodetypes="cc" />
      <path
         style="fill:#ffffff;stroke:#000000;stroke-width:0.264583px;stroke-linecap:round;stroke-linejoin:miter;stroke-opacity:1"
         d="m 57.997486,164.95541 c -0.194648,-0.008 -0.391945,-0.0339 -0.572844,-0.10922 -0.09028,-0.0376 -0.176193,-0.0886 -0.245668,-0.15805"
         id="path1700"
         inkscape:path-effect="#path-effect1702"
         inkscape:original-d="m 57.997486,164.95541 c -0.281236,-0.0104 -0.621649,-0.0704 -0.818512,-0.26727" />
      <path
         id="path1704"
         style="fill:#ffffff;stroke:#000000;stroke-width:0.264583px;stroke-linecap:butt;stroke-linejoin:round;stroke-opacity:1"
         d="m 52.986182,167.41095 c 0.638153,-0.23841 4.536827,0.70506 4.867128,0.99621 1.240297,-0.704 3.160215,-0.50782 3.785724,-0.37822"
         sodipodi:nodetypes="ccc" />
    </g>
  </g>
</svg>
