<?xml version="1.0" encoding="UTF-8" standalone="no"?>
<svg
   width="52"
   height="120"
   viewBox="0 0 52 120"
   version="1.1"
   id="svg8"
   inkscape:version="1.2 (dc2aedaf03, 2022-05-15)"
   sodipodi:docname="mandibular_b_6.svg"
   xmlns:inkscape="http://www.inkscape.org/namespaces/inkscape"
   xmlns:sodipodi="http://sodipodi.sourceforge.net/DTD/sodipodi-0.dtd"
   xmlns="http://www.w3.org/2000/svg"
   xmlns:svg="http://www.w3.org/2000/svg"
   xmlns:rdf="http://www.w3.org/1999/02/22-rdf-syntax-ns#"
   xmlns:cc="http://creativecommons.org/ns#"
   xmlns:dc="http://purl.org/dc/elements/1.1/">
  <defs
     id="defs2">
    <inkscape:path-effect
       simplify_just_coalesce="false"
       simplify_individual_paths="false"
       helper_size="0"
       smooth_angles="360"
       threshold="0.000851064"
       steps="1"
       lpeversion="1"
       is_visible="true"
       id="path-effect1677"
       effect="simplify" />
    <inkscape:path-effect
       simplify_just_coalesce="false"
       simplify_individual_paths="false"
       helper_size="0"
       smooth_angles="360"
       threshold="0.000851064"
       steps="1"
       lpeversion="1"
       is_visible="true"
       id="path-effect1673"
       effect="simplify" />
    <inkscape:path-effect
       simplify_just_coalesce="false"
       simplify_individual_paths="false"
       helper_size="0"
       smooth_angles="360"
       threshold="0.000851064"
       steps="1"
       lpeversion="1"
       is_visible="true"
       id="path-effect1669"
       effect="simplify" />
    <inkscape:path-effect
       simplify_just_coalesce="false"
       simplify_individual_paths="false"
       helper_size="0"
       smooth_angles="360"
       threshold="0.000851064"
       steps="1"
       lpeversion="1"
       is_visible="true"
       id="path-effect1628"
       effect="simplify" />
  </defs>
  <sodipodi:namedview
     id="base"
     pagecolor="#ffffff"
     bordercolor="#666666"
     borderopacity="1.0"
     inkscape:pageopacity="0.0"
     inkscape:pageshadow="2"
     inkscape:zoom="3.959798"
     inkscape:cx="30.557114"
     inkscape:cy="51.265242"
     inkscape:document-units="px"
     inkscape:current-layer="layer4"
     inkscape:document-rotation="0"
     showgrid="false"
     inkscape:snap-global="false"
     inkscape:window-width="1920"
     inkscape:window-height="1094"
     inkscape:window-x="-11"
     inkscape:window-y="-11"
     inkscape:window-maximized="1"
     inkscape:showpageshadow="2"
     inkscape:pagecheckerboard="0"
     inkscape:deskcolor="#d1d1d1">
    <inkscape:grid
       type="xygrid"
       id="grid884"
       originx="-1.0970138e-06"
       originy="-3.499888e-06" />
    <sodipodi:guide
       id="guide1093"
       orientation="1084.7244,0"
       position="-199.42881,902.75182"
       inkscape:locked="false" />
    <sodipodi:guide
       id="guide1095"
       orientation="0,755.90551"
       position="-199.42881,-181.97259"
       inkscape:locked="false" />
    <sodipodi:guide
       id="guide1097"
       orientation="-1084.7244,0"
       position="556.47669,-181.97259"
       inkscape:locked="false" />
    <sodipodi:guide
       id="guide1099"
       orientation="0,-755.90551"
       position="556.47669,902.75182"
       inkscape:locked="false" />
    <sodipodi:guide
       id="guide2864"
       orientation="93.944202,0"
       position="178.52395,455.22004"
       inkscape:locked="false" />
  </sodipodi:namedview>
  <metadata
     id="metadata5">
    <rdf:RDF>
      <cc:Work
         rdf:about="">
        <dc:format>image/svg+xml</dc:format>
        <dc:type
           rdf:resource="http://purl.org/dc/dcmitype/StillImage" />
      </cc:Work>
    </rdf:RDF>
  </metadata>
  <g
     style="display:inline"
     inkscape:groupmode="layer"
     id="layer4"
     inkscape:label="歯"
     transform="translate(-57.76554,-211.10308)">
    <g
       id="g1689"
       style="fill:#ffffff;stroke-width:0.259283;stroke-dasharray:none"
       transform="matrix(3.8583148,0,0,3.8583148,-186.35514,-398.33681)">
      <path
         id="path1662"
         style="fill:#ffffff;stroke:#000000;stroke-width:0.259283;stroke-linecap:round;stroke-linejoin:round;stroke-dasharray:none;stroke-opacity:1"
         d="m 65.385452,161.9055 c -0.534479,-0.61756 -1.310949,-0.17194 -1.722184,0.20935 -0.403137,0.30094 -0.290953,0.96701 -0.0049,2.42278 0.247972,0.86 1.110207,2.56868 1.511189,3.18707 -0.06036,1.43959 -0.247431,3.64131 -0.803903,5.64696 -0.68958,1.98071 -1.030589,3.72752 -0.770053,5.38662 0.108194,1.66532 2.514905,3.65541 1.827352,-0.27083 0.09759,-1.10082 1.123191,-3.97464 2.587975,-5.66994 1.376691,-2.25534 3.072586,-1.81974 3.131889,0.7084 0.175724,1.30292 0.254358,3.9574 -0.02797,5.23475 -0.405081,0.80335 -0.927046,3.77083 2.083867,0.54992 1.105994,-1.93977 1.073231,-3.34499 1.292369,-4.96453 0.02471,-1.92664 -0.501329,-4.8719 0.302155,-6.49851 0.42106,-0.89968 0.718009,-1.26391 1.220125,-2.25624 0.996918,-2.67801 0.820929,-3.27505 -0.980427,-4.12015 -1.319965,-0.7901 -1.815931,-0.56624 -3.4519,0.0559 -0.789423,0.49482 -0.913245,0.57749 -2.575112,-0.0704 -1.216413,-0.40113 -0.971856,-0.60365 -3.620472,0.44885 z"
         sodipodi:nodetypes="cccccccccccccccccc" />
      <path
         style="fill:#ffffff;stroke:#000000;stroke-width:0.259283;stroke-linecap:round;stroke-linejoin:miter;stroke-dasharray:none;stroke-opacity:1"
         d="m 64.879676,163.50213 c -0.0767,-0.0957 -0.131788,-0.20979 -0.15229,-0.33128 -0.02198,-0.13027 -0.0031,-0.26453 0.03814,-0.3891 0.05344,-0.16135 0.139821,-0.3095 0.235245,-0.4493 0.102513,-0.15019 0.217907,-0.29089 0.329922,-0.43394"
         id="path1667"
         inkscape:path-effect="#path-effect1669"
         inkscape:original-d="m 64.879676,163.50213 c -0.440315,-0.55424 0.12389,-1.18414 0.451017,-1.60362"
         sodipodi:nodetypes="cc" />
      <path
         style="fill:#ffffff;stroke:#000000;stroke-width:0.259283;stroke-linecap:round;stroke-linejoin:miter;stroke-dasharray:none;stroke-opacity:1"
         d="m 70.509042,161.93192 c 0.06424,0.29753 0.08719,0.60213 0.09897,0.90572 0.01364,0.35159 0.0074,0.70366 0.02227,1.05519 0.0053,0.12618 0.01337,0.25235 0.02911,0.3777"
         id="path1671"
         inkscape:path-effect="#path-effect1673"
         inkscape:original-d="m 70.509042,161.93192 c 0.16499,0.75753 0.07028,1.70474 0.150345,2.33861"
         sodipodi:nodetypes="cc" />
      <path
         style="fill:#ffffff;stroke:#000000;stroke-width:0.259283;stroke-linecap:round;stroke-linejoin:miter;stroke-dasharray:none;stroke-opacity:1"
         d="m 70.275179,165.47324 c 0.04472,0.008 0.08824,-0.0136 0.122636,-0.0403 0.05785,-0.0449 0.103019,-0.10366 0.143798,-0.16385 0.05418,-0.08 0.07655,-0.18188 0.143605,-0.25124 0.004,-0.004 0.0036,-0.0144 0.01453,-0.0117 0.04196,0.0107 0.08049,0.0314 0.118792,0.0511 0.126983,0.0651 0.251727,0.13436 0.37688,0.20292 0.04091,0.0224 0.08545,0.0363 0.130055,0.0494 0.135447,0.0395 0.275734,0.0672 0.402985,0.13028"
         id="path1675"
         inkscape:path-effect="#path-effect1677"
         inkscape:original-d="m 70.275179,165.47324 c 0.191791,0.034 0.409681,-0.46772 0.417611,-0.46772 0.06365,0 0.472096,0.25203 0.567946,0.28398 0.150614,0.0502 0.323845,0.0784 0.467723,0.15034" />
      <path
         id="path1679"
         style="fill:#ffffff;stroke:#000000;stroke-width:0.259283;stroke-linecap:round;stroke-linejoin:round;stroke-dasharray:none;stroke-opacity:1"
         d="m 65.146946,167.69492 c 0.208657,-0.35533 3.819082,-0.39526 4.748562,0.74841 1.306163,-1.2134 4.702391,-0.61345 4.806325,-0.43107"
         sodipodi:nodetypes="ccc" />
    </g>
  </g>
</svg>
