<?xml version="1.0" encoding="UTF-8" standalone="no"?>
<svg
   width="8.670619"
   height="30"
   viewBox="0 0 8.670619 29.999999"
   version="1.1"
   id="svg8"
   inkscape:version="1.2 (dc2aedaf03, 2022-05-15)"
   sodipodi:docname="maxilla_p_8.svg"
   xmlns:inkscape="http://www.inkscape.org/namespaces/inkscape"
   xmlns:sodipodi="http://sodipodi.sourceforge.net/DTD/sodipodi-0.dtd"
   xmlns="http://www.w3.org/2000/svg"
   xmlns:svg="http://www.w3.org/2000/svg"
   xmlns:rdf="http://www.w3.org/1999/02/22-rdf-syntax-ns#"
   xmlns:cc="http://creativecommons.org/ns#"
   xmlns:dc="http://purl.org/dc/elements/1.1/">
  <defs
     id="defs2" />
  <sodipodi:namedview
     id="base"
     pagecolor="#ffffff"
     bordercolor="#666666"
     borderopacity="1.0"
     inkscape:pageopacity="0.0"
     inkscape:pageshadow="2"
     inkscape:zoom="5.6"
     inkscape:cx="30.892857"
     inkscape:cy="26.25"
     inkscape:document-units="px"
     inkscape:current-layer="layer4"
     inkscape:document-rotation="0"
     showgrid="false"
     inkscape:snap-global="false"
     inkscape:window-width="1355"
     inkscape:window-height="842"
     inkscape:window-x="0"
     inkscape:window-y="0"
     inkscape:window-maximized="0"
     inkscape:showpageshadow="2"
     inkscape:pagecheckerboard="0"
     inkscape:deskcolor="#d1d1d1">
    <inkscape:grid
       type="xygrid"
       id="grid884"
       originx="1.2478226e-06"
       originy="4.5052622e-06" />
    <sodipodi:guide
       id="guide1093"
       orientation="1084.7244,0"
       position="-117.99667,342.76341"
       inkscape:locked="false" />
    <sodipodi:guide
       id="guide1095"
       orientation="0,755.90551"
       position="-117.99667,-741.96098"
       inkscape:locked="false" />
    <sodipodi:guide
       id="guide1097"
       orientation="-1084.7244,0"
       position="637.90881,-741.96098"
       inkscape:locked="false" />
    <sodipodi:guide
       id="guide1099"
       orientation="0,-755.90551"
       position="637.90881,342.76341"
       inkscape:locked="false" />
    <sodipodi:guide
       id="guide2864"
       orientation="93.944202,0"
       position="259.95608,-104.76832"
       inkscape:locked="false" />
  </sodipodi:namedview>
  <metadata
     id="metadata5">
    <rdf:RDF>
      <cc:Work
         rdf:about="">
        <dc:format>image/svg+xml</dc:format>
        <dc:type
           rdf:resource="http://purl.org/dc/dcmitype/StillImage" />
      </cc:Work>
    </rdf:RDF>
  </metadata>
  <g
     style="display:inline"
     inkscape:groupmode="layer"
     id="layer4"
     inkscape:label="歯"
     transform="translate(-36.219951,-86.751984)">
    <g
       id="g1191"
       style="fill:#ffffff"
       transform="translate(-4.7625002,72.390659)">
      <path
         sodipodi:nodetypes="ccccsccccscccc"
         d="m 44.099472,28.898517 c -0.421341,-0.317408 -1.27214,-0.89154 -1.73474,-0.716461 -1.028299,0.75969 -0.608608,3.338011 -0.42282,4.497206 0.341941,1.858324 0.490305,3.566745 0.372913,5.338518 -0.453302,1.249593 -1.318697,2.692525 -1.186154,4.096378 0.09613,1.018141 0.642787,1.481165 1.241992,1.398987 0.531852,-0.135224 0.593943,-0.453353 1.225752,-0.507501 0.668352,0.09645 2.174359,1.24289 2.522609,1.22301 1.285363,-0.162958 2.022324,-0.899079 2.655422,-1.480219 0.506748,-0.648814 0.999043,-1.368707 0.603949,-2.289679 -0.291438,-0.679348 -0.673545,-1.481488 -0.88762,-2.307739 -0.886213,-2.866956 -0.884473,-6.577522 -3.428633,-9.274319 -0.312,-0.29579 -0.311631,-0.283039 -0.96267,0.02182 z"
         style="fill:#ffffff;stroke:#000000;stroke-width:0.264583px;stroke-linecap:butt;stroke-linejoin:miter;stroke-opacity:1"
         id="path1148" />
      <path
         sodipodi:nodetypes="cc"
         d="m 43.01369,41.911202 c 0.240709,0.335509 0.302116,0.634154 0.484426,1.002262"
         style="fill:#ffffff;stroke:#000000;stroke-width:0.264583px;stroke-linecap:round;stroke-linejoin:round;stroke-opacity:1"
         id="path1163" />
      <path
         d="m 42.579377,38.035793 c 0.877086,0.01086 1.720889,-0.305693 2.599594,-0.2916 0.944947,-0.02064 1.887333,0.159333 2.798941,0.391001 0.153591,0.05037 0.304043,0.110906 0.447984,0.184613"
         style="fill:#ffffff;stroke:#000000;stroke-width:0.264583px;stroke-linecap:round;stroke-linejoin:round;stroke-opacity:1"
         id="path1168" />
      <path
         sodipodi:nodetypes="ccc"
         d="m 44.182993,28.998743 c 0.333968,1.014551 1.108239,1.560762 1.567285,2.425176 0.55896,0.81338 1.199273,1.73845 1.756884,2.552716"
         style="fill:#ffffff;stroke:#000000;stroke-width:0.264583px;stroke-linecap:round;stroke-linejoin:round;stroke-opacity:1"
         id="path1177" />
    </g>
  </g>
</svg>
