<?xml version="1.0" encoding="UTF-8" standalone="no"?>
<svg
   width="10.802765"
   height="30"
   viewBox="0 0 10.802764 30"
   version="1.1"
   id="svg8"
   inkscape:version="1.2 (dc2aedaf03, 2022-05-15)"
   sodipodi:docname="maxilla_b_7.svg"
   xmlns:inkscape="http://www.inkscape.org/namespaces/inkscape"
   xmlns:sodipodi="http://sodipodi.sourceforge.net/DTD/sodipodi-0.dtd"
   xmlns="http://www.w3.org/2000/svg"
   xmlns:svg="http://www.w3.org/2000/svg"
   xmlns:rdf="http://www.w3.org/1999/02/22-rdf-syntax-ns#"
   xmlns:cc="http://creativecommons.org/ns#"
   xmlns:dc="http://purl.org/dc/elements/1.1/">
  <defs
     id="defs2" />
  <sodipodi:namedview
     id="base"
     pagecolor="#ffffff"
     bordercolor="#666666"
     borderopacity="1.0"
     inkscape:pageopacity="0.0"
     inkscape:pageshadow="2"
     inkscape:zoom="89.6"
     inkscape:cx="4.9609375"
     inkscape:cy="20.279018"
     inkscape:document-units="px"
     inkscape:current-layer="layer4"
     inkscape:document-rotation="0"
     showgrid="false"
     inkscape:snap-global="false"
     inkscape:window-width="1355"
     inkscape:window-height="842"
     inkscape:window-x="0"
     inkscape:window-y="0"
     inkscape:window-maximized="0"
     inkscape:showpageshadow="2"
     inkscape:pagecheckerboard="0"
     inkscape:deskcolor="#d1d1d1">
    <inkscape:grid
       type="xygrid"
       id="grid884"
       originx="0.032006608"
       originy="-7.0393765" />
    <sodipodi:guide
       id="guide1093"
       orientation="1084.7244,0"
       position="-148.88293,119.45496"
       inkscape:locked="false" />
    <sodipodi:guide
       id="guide1095"
       orientation="0,755.90551"
       position="-148.88293,-965.26941"
       inkscape:locked="false" />
    <sodipodi:guide
       id="guide1097"
       orientation="-1084.7244,0"
       position="607.0225,-965.26941"
       inkscape:locked="false" />
    <sodipodi:guide
       id="guide1099"
       orientation="0,-755.90551"
       position="607.0225,119.45496"
       inkscape:locked="false" />
    <sodipodi:guide
       id="guide2864"
       orientation="93.944202,0"
       position="229.06979,-328.07676"
       inkscape:locked="false" />
  </sodipodi:namedview>
  <metadata
     id="metadata5">
    <rdf:RDF>
      <cc:Work
         rdf:about="">
        <dc:format>image/svg+xml</dc:format>
        <dc:type
           rdf:resource="http://purl.org/dc/dcmitype/StillImage" />
      </cc:Work>
    </rdf:RDF>
  </metadata>
  <g
     style="display:inline"
     inkscape:groupmode="layer"
     id="layer4"
     inkscape:label="歯"
     transform="translate(-44.368409,-32.845166)">
    <g
       id="g1566"
       style="fill:#ffffff"
       transform="translate(-4.2333335,-31.938229)">
      <path
         id="path1547"
         style="fill:#ffffff;stroke:#000000;stroke-width:0.264583px;stroke-linecap:butt;stroke-linejoin:miter;stroke-opacity:1"
         d="m 55.751489,74.225072 c -0.532501,-0.868571 -1.076751,-1.594184 -1.880811,-1.217565 -0.408099,-1.669617 -1.974112,-2.037358 -2.710281,-0.944565 -0.476945,-0.345809 -1.351438,-0.168646 -1.767289,1.134787 -0.717112,2.911901 1.320238,5.495656 1.240372,6.908665 -0.06283,1.111552 0.01942,2.471989 -0.57673,4.183463 -0.590503,1.355306 -1.589315,2.451309 -1.25715,4.122447 0.224584,1.129892 2.275438,2.450309 3.683497,1.76724 0.556172,-0.301719 1.902696,-1.090282 1.440441,-0.681152 0.976752,0.649929 2.249917,1.707628 3.811281,0.667304 0.915576,-0.610041 1.834903,-1.058794 1.451142,-2.264122 -0.382657,-1.17436 -1.303396,-1.947595 -1.656963,-3.201435 -0.885475,-2.833535 -0.03326,-7.629985 -1.777509,-10.475067 z"
         sodipodi:nodetypes="scccscsccsccs" />
      <path
         id="path1553"
         style="fill:#ffffff;stroke:#000000;stroke-width:0.264583px;stroke-linecap:butt;stroke-linejoin:miter;stroke-opacity:1"
         d="m 51.168527,72.075333 c 1.375443,1.41935 -1.396885,1.191516 1.951407,6.317172 0.296113,0.482566 0.789674,0.991784 0.89937,0.05946 0.423979,-1.912771 -1.209799,-4.761501 -0.157743,-5.455314"
         sodipodi:nodetypes="cccc" />
      <path
         id="path1558"
         style="fill:#ffffff;stroke:#000000;stroke-width:0.264583px;stroke-linecap:butt;stroke-linejoin:miter;stroke-opacity:1"
         d="m 49.98735,84.265065 c 1.025287,0.172728 2.64598,0.298534 3.591202,-0.09236 1.147123,0.258 2.408034,0.231319 3.813376,0.09481"
         sodipodi:nodetypes="ccc" />
    </g>
  </g>
</svg>
