<?xml version="1.0" encoding="UTF-8" standalone="no"?>
<svg
   width="7.8500519"
   height="30"
   viewBox="0 0 7.8500519 30.000001"
   version="1.1"
   id="svg8"
   sodipodi:docname="maxilla_b_5.svg"
   inkscape:version="1.2 (dc2aedaf03, 2022-05-15)"
   xmlns:inkscape="http://www.inkscape.org/namespaces/inkscape"
   xmlns:sodipodi="http://sodipodi.sourceforge.net/DTD/sodipodi-0.dtd"
   xmlns="http://www.w3.org/2000/svg"
   xmlns:svg="http://www.w3.org/2000/svg"
   xmlns:rdf="http://www.w3.org/1999/02/22-rdf-syntax-ns#"
   xmlns:cc="http://creativecommons.org/ns#"
   xmlns:dc="http://purl.org/dc/elements/1.1/">
  <sodipodi:namedview
     id="namedview409"
     pagecolor="#505050"
     bordercolor="#eeeeee"
     borderopacity="1"
     inkscape:showpageshadow="0"
     inkscape:pageopacity="0"
     inkscape:pagecheckerboard="0"
     inkscape:deskcolor="#505050"
     inkscape:document-units="px"
     showgrid="false"
     inkscape:zoom="101.32032"
     inkscape:cx="2.9411672"
     inkscape:cy="19.571592"
     inkscape:window-width="1920"
     inkscape:window-height="1094"
     inkscape:window-x="-11"
     inkscape:window-y="-11"
     inkscape:window-maximized="1"
     inkscape:current-layer="svg8" />
  <defs
     id="defs2" />
  <metadata
     id="metadata5">
    <rdf:RDF>
      <cc:Work
         rdf:about="">
        <dc:format>image/svg+xml</dc:format>
        <dc:type
           rdf:resource="http://purl.org/dc/dcmitype/StillImage" />
      </cc:Work>
    </rdf:RDF>
  </metadata>
  <g
     style="display:inline"
     id="layer4"
     transform="translate(-66.836145,-18.624032)">
    <g
       id="g1518"
       style="fill:#ffffff"
       transform="translate(-4.2333335,-45.508356)">
      <path
         id="path1506"
         style="fill:#ffffff;stroke:#000000;stroke-width:0.264583px;stroke-linecap:butt;stroke-linejoin:miter;stroke-opacity:1"
         d="m 75.77091,71.828685 c -1.296402,-3.654008 -2.31482,-3.267799 -2.76029,0.822587 -0.125998,3.22009 -0.585543,7.960332 -0.760599,11.096609 -0.388069,1.307575 -0.780469,2.213092 -1.011168,3.572026 -0.185472,1.835065 0.320378,2.601908 1.681978,3.039553 2.078268,0.73766 1.581419,1.067502 4.12993,0.06303 1.435504,-0.676412 1.806695,-1.057054 1.726427,-2.357839 -0.17582,-1.249951 -0.62665,-3.343969 -1.60673,-4.448586 -0.417316,-3.764464 -0.926607,-9.276493 -1.399548,-11.787382 z" />
      <path
         style="fill:#ffffff;stroke:#000000;stroke-width:0.264583px;stroke-linecap:butt;stroke-linejoin:miter;stroke-opacity:1"
         d="m 72.262999,83.788994 c 0.554554,-0.229773 1.029946,-0.293859 1.628882,-0.349208 0.45049,-0.04163 0.984814,-0.07142 1.484689,-0.04007 0.625099,0.0392 1.226436,-0.0277 1.797505,0.222245"
         id="path1512"
         sodipodi:nodetypes="cssc" />
    </g>
  </g>
</svg>
