<?xml version="1.0" encoding="UTF-8" standalone="no"?>
<!-- Created with Inkscape (http://www.inkscape.org/) -->

<svg
   width="32"
   height="45"
   viewBox="0 0 32 45.000001"
   version="1.1"
   id="svg1662"
   inkscape:version="1.2 (dc2aedaf03, 2022-05-15)"
   sodipodi:docname="occlusal_u_3.svg"
   xmlns:inkscape="http://www.inkscape.org/namespaces/inkscape"
   xmlns:sodipodi="http://sodipodi.sourceforge.net/DTD/sodipodi-0.dtd"
   xmlns="http://www.w3.org/2000/svg"
   xmlns:svg="http://www.w3.org/2000/svg">
  <sodipodi:namedview
     id="namedview1664"
     pagecolor="#505050"
     bordercolor="#eeeeee"
     borderopacity="1"
     inkscape:showpageshadow="0"
     inkscape:pageopacity="0"
     inkscape:pagecheckerboard="0"
     inkscape:deskcolor="#505050"
     inkscape:document-units="mm"
     showgrid="false"
     inkscape:zoom="26.910887"
     inkscape:cx="-1.3749082"
     inkscape:cy="4.9793974"
     inkscape:window-width="1920"
     inkscape:window-height="1094"
     inkscape:window-x="-11"
     inkscape:window-y="-11"
     inkscape:window-maximized="1"
     inkscape:current-layer="layer1" />
  <defs
     id="defs1659" />
  <g
     inkscape:label="Layer 1"
     inkscape:groupmode="layer"
     id="layer1"
     transform="translate(2.7501643e-7,-0.63960195)">
    <path
       id="path324"
       style="fill:#ffffff;fill-opacity:1;stroke:#000000;stroke-width:1.00003;stroke-linecap:round;stroke-dasharray:none"
       d="m 31.499991,21.674574 c 0,4.021289 -3.92851,6.768212 -7.171,10.150647 -3.242489,3.382435 -5.798965,7.400378 -9.852618,7.400378 -4.053649,0 -7.5477385,-2.084107 -10.0284183,-5.173534 -2.4806761,-3.08943 -3.94793899,-7.184183 -3.94793899,-11.205468 0,-4.021288 3.19599799,-6.797513 6.52639099,-9.74044 C 10.3568,10.163233 13.821584,7.0536048 17.875237,7.0536048 c 4.053653,-3.7e-6 6.346422,2.6408156 8.739194,5.2907382 2.392776,2.64992 4.88556,2.730494 4.88556,9.330231 z"
       sodipodi:nodetypes="sssssssss" />
    <path
       style="fill:none;fill-opacity:0.434316;stroke:#000000;stroke-width:1.00003;stroke-linecap:round;stroke-dasharray:none"
       d="m 4.250487,24.751132 c 4.3015437,-0.571715 6.152195,-1.769887 9.493355,-1.757958"
       id="path593"
       sodipodi:nodetypes="cc" />
  </g>
</svg>
