<?xml version="1.0" encoding="UTF-8" standalone="no"?>
<!-- Created with Inkscape (http://www.inkscape.org/) -->

<svg
   width="2.1343842"
   height="2.252502"
   viewBox="0 0 2.1343842 2.252502"
   version="1.1"
   id="svg1662"
   inkscape:version="1.2 (dc2aedaf03, 2022-05-15)"
   sodipodi:docname="occlusal_l_3.svg"
   xmlns:inkscape="http://www.inkscape.org/namespaces/inkscape"
   xmlns:sodipodi="http://sodipodi.sourceforge.net/DTD/sodipodi-0.dtd"
   xmlns="http://www.w3.org/2000/svg"
   xmlns:svg="http://www.w3.org/2000/svg">
  <sodipodi:namedview
     id="namedview1664"
     pagecolor="#505050"
     bordercolor="#eeeeee"
     borderopacity="1"
     inkscape:showpageshadow="0"
     inkscape:pageopacity="0"
     inkscape:pagecheckerboard="0"
     inkscape:deskcolor="#505050"
     inkscape:document-units="mm"
     showgrid="false"
     inkscape:zoom="26.910887"
     inkscape:cx="6.1313475"
     inkscape:cy="5.2023555"
     inkscape:window-width="1920"
     inkscape:window-height="1094"
     inkscape:window-x="-11"
     inkscape:window-y="-11"
     inkscape:window-maximized="1"
     inkscape:current-layer="g753" />
  <defs
     id="defs1659" />
  <g
     inkscape:label="Layer 1"
     inkscape:groupmode="layer"
     id="layer1"
     transform="translate(1.107723e-7,-0.7258324)">
    <g
       id="g753"
       style="display:inline"
       transform="matrix(0.26458333,0,0,0.26458333,-9.7847388,-7.8630452)">
      <g
         id="g774"
         style="display:inline"
         transform="translate(-15.357595,-0.16756401)">
        <path
           id="path767"
           style="fill:none;fill-opacity:0.434316;stroke:#000000;stroke-width:0.5;stroke-linecap:round"
           d="m 60.156249,37.388393 c 0,1.047862 -0.637786,1.259916 -1.271969,1.946611 -0.634183,0.686695 -1.845122,1.557853 -2.812853,1.557853 -0.967731,0 -1.754561,-0.670265 -2.388744,-1.35696 -0.634184,-0.686696 -1.093398,-1.345178 -1.093398,-2.39304 0,-1.047862 0.07975,-1.81795 1.338934,-3.151968 0.64162,-0.679751 1.287084,-1.111425 2.254815,-1.111425 0.967732,0 1.687598,1.005087 2.321781,1.691782 0.634184,0.686696 1.651434,1.769285 1.651434,2.817147 z"
           sodipodi:nodetypes="sssssssss" />
        <path
           style="fill:none;fill-opacity:0.434316;stroke:#000000;stroke-width:0.5;stroke-linecap:round"
           d="m 53.504464,36.540179 c 0.678375,0.08781 1.345705,0.260702 2.031246,0.290243"
           id="path770" />
      </g>
    </g>
  </g>
</svg>
