<?xml version="1.0" encoding="UTF-8" standalone="no"?>
<!-- Created with Inkscape (http://www.inkscape.org/) -->

<svg
   width="48"
   height="45"
   viewBox="0 0 48 44.999999"
   version="1.1"
   id="svg1662"
   inkscape:version="1.2 (dc2aedaf03, 2022-05-15)"
   sodipodi:docname="occlusal_u_6.svg"
   xmlns:inkscape="http://www.inkscape.org/namespaces/inkscape"
   xmlns:sodipodi="http://sodipodi.sourceforge.net/DTD/sodipodi-0.dtd"
   xmlns="http://www.w3.org/2000/svg"
   xmlns:svg="http://www.w3.org/2000/svg">
  <sodipodi:namedview
     id="namedview1664"
     pagecolor="#505050"
     bordercolor="#eeeeee"
     borderopacity="1"
     inkscape:showpageshadow="0"
     inkscape:pageopacity="0"
     inkscape:pagecheckerboard="0"
     inkscape:deskcolor="#505050"
     inkscape:document-units="mm"
     showgrid="false"
     inkscape:zoom="13.455444"
     inkscape:cx="13.526124"
     inkscape:cy="17.093454"
     inkscape:window-width="1920"
     inkscape:window-height="1094"
     inkscape:window-x="-11"
     inkscape:window-y="-11"
     inkscape:window-maximized="1"
     inkscape:current-layer="layer1" />
  <defs
     id="defs1659" />
  <g
     inkscape:label="Layer 1"
     inkscape:groupmode="layer"
     id="layer1"
     transform="translate(-4.1927823e-8,-0.29884507)">
    <path
       style="fill:#ffffff;fill-opacity:1;stroke:#000000;stroke-width:1.0004;stroke-linecap:round;stroke-dasharray:none;stroke-opacity:1"
       d="m 2.814505,19.697264 c -2.55340605,6.206654 -3.77617439,15.120677 0.5269091,20.380538 3.6912913,4.512041 9.7884479,4.879186 17.0468429,3.906726 7.325788,1.271161 11.007671,1.096074 14.916817,-1.747398 4.108953,-2.988811 6.271166,-6.558463 8.179292,-10.167487 C 46.819615,25.761354 47.535443,15.77529 47.498399,8.9675565 47.477318,5.1062296 39.424087,-0.07529197 27.059993,1.0016218 15.529898,3.3873698 6.6496209,10.078118 2.814505,19.697264 Z"
       id="path6379"
       sodipodi:nodetypes="cacssscc" />
    <path
       style="fill:none;fill-opacity:0.434316;stroke:#000000;stroke-width:1.0004;stroke-linecap:round;stroke-dasharray:none;stroke-opacity:1"
       d="m 3.2447411,27.542435 c 1.2968766,0.137106 2.9409645,0.03514 4.0517682,-0.62683 2.4753744,-1.222261 -0.2947855,-3.294477 2.3779519,-0.447464 0.7771238,0.847526 2.0118998,0.745244 3.0679318,0.832859 6.471067,-0.284908 3.226865,-2.065942 2.910026,1.969738 0.167947,3.001331 1.841115,5.500824 2.981487,7.846186 0.432196,0.788402 0.84682,1.607902 1.001111,2.502475"
       id="path6381"
       sodipodi:nodetypes="ccccccc" />
    <path
       style="fill:none;fill-opacity:0.434316;stroke:#000000;stroke-width:1.0004;stroke-linecap:round;stroke-dasharray:none;stroke-opacity:1"
       d="m 23.47294,8.3501154 c -0.06968,1.6196063 0.596227,3.1467526 1.044269,4.6815656 0.366032,1.253886 0.705299,1.709837 1.643471,3.311006 1.356517,-2.284641 1.421014,-1.878667 0.255317,0.784974 0.117547,1.101184 0.413535,2.231289 0.778193,3.269979 0.575369,1.177877 2.023807,1.456317 3.211765,1.519045 0.723612,0.05212 1.449504,0.02459 2.173171,0.07082"
       id="path6383"
       sodipodi:nodetypes="csccccc" />
    <path
       style="fill:none;fill-opacity:0.434316;stroke:#000000;stroke-width:1.0004;stroke-linecap:round;stroke-dasharray:none;stroke-opacity:1"
       d="M 22.732237,24.166245 C 24.564595,23.6715 26.35996,22.8411 27.699241,21.464755"
       id="path6385" />
    <path
       style="fill:none;fill-opacity:0.434316;stroke:#000000;stroke-width:1.0004;stroke-linecap:round;stroke-dasharray:none;stroke-opacity:1"
       d="m 43.428278,17.717798 c -1.01536,0.623531 -2.070783,1.215519 -2.949572,2.025595 -0.329101,0.05547 -0.588962,0.466574 -0.89286,0.680415 -0.527241,0.45138 -1.097581,0.846516 -1.624158,1.299438 -0.588177,0.440726 -1.235667,0.919398 -2.007637,0.901491 -0.32063,0.01601 -0.351822,0.02186 -0.01952,0.0164 0.913058,-0.160529 1.79444,0.431923 2.222346,1.211092 0.626279,0.903048 1.25592,1.848642 2.205886,2.443425 0.311338,0.165448 0.65659,0.32547 1.017558,0.310362"
       id="path6387" />
  </g>
</svg>
