<?xml version="1.0" encoding="UTF-8" standalone="no"?>
<!-- Created with Inkscape (http://www.inkscape.org/) -->

<svg
   width="2.2333655"
   height="2.140372"
   viewBox="0 0 2.2333655 2.140372"
   version="1.1"
   id="svg1662"
   inkscape:version="1.2 (dc2aedaf03, 2022-05-15)"
   sodipodi:docname="occlusal_l_5.svg"
   xmlns:inkscape="http://www.inkscape.org/namespaces/inkscape"
   xmlns:sodipodi="http://sodipodi.sourceforge.net/DTD/sodipodi-0.dtd"
   xmlns="http://www.w3.org/2000/svg"
   xmlns:svg="http://www.w3.org/2000/svg">
  <sodipodi:namedview
     id="namedview1664"
     pagecolor="#505050"
     bordercolor="#eeeeee"
     borderopacity="1"
     inkscape:showpageshadow="0"
     inkscape:pageopacity="0"
     inkscape:pagecheckerboard="0"
     inkscape:deskcolor="#505050"
     inkscape:document-units="mm"
     showgrid="false"
     inkscape:zoom="26.910887"
     inkscape:cx="6.1313475"
     inkscape:cy="4.8307586"
     inkscape:window-width="1920"
     inkscape:window-height="1094"
     inkscape:window-x="-11"
     inkscape:window-y="-11"
     inkscape:window-maximized="1"
     inkscape:current-layer="layer1" />
  <defs
     id="defs1659" />
  <g
     inkscape:label="Layer 1"
     inkscape:groupmode="layer"
     id="layer1"
     transform="translate(0,-0.78189739)">
    <g
       id="g753"
       style="display:inline"
       transform="matrix(0.26458333,0,0,0.26458333,-9.7847388,-7.8630452)">
      <path
         id="path740"
         style="fill:none;fill-opacity:0.434316;stroke:#000000;stroke-width:0.5;stroke-linecap:round"
         d="m 45.156251,36.417412 c 0.15625,2.408721 -0.801869,2.512219 -1.587274,3.184889 -0.883444,0.756637 -1.232216,0.911093 -2.307815,0.911093 -1.075599,0 -1.40205,-0.299545 -2.397102,-0.888771 -0.855283,-0.506462 -1.654238,-0.552954 -1.631917,-2.894711 0.01019,-1.069387 0.329946,-2.087851 1.241292,-2.749621 0.77252,-0.560963 0.752306,-1.033861 2.720763,-1.056183 1.07553,-0.0122 2.066112,0.338609 2.787726,0.944576 0.721613,0.605967 1.1051,1.481536 1.174327,2.548728 z"
         sodipodi:nodetypes="sssssssss" />
      <path
         style="fill:none;fill-opacity:0.434316;stroke:#000000;stroke-width:0.5;stroke-linecap:round"
         d="m 40.959821,34.308036 c 0.05679,0.419868 -0.151903,0.970133 0.193701,1.289719 0.403216,0.267444 0.900315,0.313 1.355567,0.443035 0.46242,0.155722 0.537568,-0.489438 0.950705,-0.460418"
         id="path743" />
      <path
         style="fill:none;fill-opacity:0.434316;stroke:#000000;stroke-width:0.5;stroke-linecap:round"
         d="m 38.75,35.669643 c 0.150763,0.309842 0.900596,0.348571 0.688116,0.764366 -0.224981,0.378876 -0.458807,0.755153 -0.643463,1.155257"
         id="path745" />
      <path
         style="fill:none;fill-opacity:0.434316;stroke:#000000;stroke-width:0.5;stroke-linecap:round"
         d="m 41.071429,35.491071 c -0.261738,0.221083 -0.492039,0.50421 -0.849764,0.566331 -0.21613,0.07406 -0.439845,0.129854 -0.668094,0.147937"
         id="path747" />
    </g>
  </g>
</svg>
