<?xml version="1.0" encoding="UTF-8" standalone="no"?>
<!-- Created with Inkscape (http://www.inkscape.org/) -->

<svg
   width="28"
   height="45"
   viewBox="0 0 28 45.000001"
   version="1.1"
   id="svg1662"
   inkscape:version="1.2 (dc2aedaf03, 2022-05-15)"
   sodipodi:docname="occlusal_l_4.svg"
   xmlns:inkscape="http://www.inkscape.org/namespaces/inkscape"
   xmlns:sodipodi="http://sodipodi.sourceforge.net/DTD/sodipodi-0.dtd"
   xmlns="http://www.w3.org/2000/svg"
   xmlns:svg="http://www.w3.org/2000/svg">
  <sodipodi:namedview
     id="namedview1664"
     pagecolor="#505050"
     bordercolor="#eeeeee"
     borderopacity="1"
     inkscape:showpageshadow="0"
     inkscape:pageopacity="0"
     inkscape:pagecheckerboard="0"
     inkscape:deskcolor="#505050"
     inkscape:document-units="mm"
     showgrid="false"
     inkscape:zoom="26.910887"
     inkscape:cx="-1.3749082"
     inkscape:cy="14.0092"
     inkscape:window-width="1920"
     inkscape:window-height="1094"
     inkscape:window-x="-11"
     inkscape:window-y="-11"
     inkscape:window-maximized="1"
     inkscape:current-layer="g753" />
  <defs
     id="defs1659" />
  <g
     inkscape:label="Layer 1"
     inkscape:groupmode="layer"
     id="layer1"
     transform="translate(0,-0.78489123)">
    <g
       id="g753"
       style="display:inline"
       transform="matrix(0.26458333,0,0,0.26458333,-9.7847388,-7.8630452)">
      <path
         id="path755"
         style="fill:#ffffff;fill-opacity:1;stroke:#000000;stroke-width:3.77966;stroke-linecap:round;stroke-dasharray:none"
         d="m 140.74699,120.83044 c -1.86358,21.7348 -9.75654,21.92892 -19.00255,31.28735 -9.24602,9.35844 -22.019282,18.2527 -36.128229,18.2527 -14.108946,0 -26.882206,-8.89426 -36.12823,-18.2527 -9.24601,-9.35843 -10.616455,-23.52938 -10.616455,-37.80987 0,-14.28048 4.4764,-25.966657 13.722424,-35.325084 9.24601,-9.35844 24.193442,-13.904358 38.302388,-13.904358 14.108962,0 21.602082,4.545918 30.848102,13.904358 9.24601,9.358427 20.72664,21.739574 19.00255,41.847604 z"
         sodipodi:nodetypes="sssssssss" />
      <path
         style="fill:none;fill-opacity:0.434316;stroke:#000000;stroke-width:3.77966;stroke-linecap:round;stroke-dasharray:none"
         d="m 110.9298,89.615571 c -5.33496,5.117116 -9.22208,15.079939 -1.52032,19.996809 2.01975,1.68854 4.37713,2.92102 6.80092,3.9194"
         id="path758" />
      <path
         style="fill:none;fill-opacity:0.434316;stroke:#000000;stroke-width:3.77966;stroke-linecap:round;stroke-dasharray:none"
         d="m 64.651007,92.721526 c 5.566046,9.894174 18.237813,7.278724 27.50148,5.702299 4.453204,-0.711598 8.990953,-1.119577 13.497173,-0.734279"
         id="path760" />
    </g>
  </g>
</svg>
