<?xml version="1.0" encoding="UTF-8" standalone="no"?>
<!-- Created with Inkscape (http://www.inkscape.org/) -->

<svg
   width="43"
   height="45"
   viewBox="0 0 43.000001 45"
   version="1.1"
   id="svg1662"
   inkscape:version="1.2 (dc2aedaf03, 2022-05-15)"
   sodipodi:docname="occlusal_u_7.svg"
   xmlns:inkscape="http://www.inkscape.org/namespaces/inkscape"
   xmlns:sodipodi="http://sodipodi.sourceforge.net/DTD/sodipodi-0.dtd"
   xmlns="http://www.w3.org/2000/svg"
   xmlns:svg="http://www.w3.org/2000/svg">
  <sodipodi:namedview
     id="namedview1664"
     pagecolor="#505050"
     bordercolor="#eeeeee"
     borderopacity="1"
     inkscape:showpageshadow="0"
     inkscape:pageopacity="0"
     inkscape:pagecheckerboard="0"
     inkscape:deskcolor="#505050"
     inkscape:document-units="mm"
     showgrid="false"
     inkscape:zoom="9.5144354"
     inkscape:cx="-16.711449"
     inkscape:cy="19.549242"
     inkscape:window-width="1920"
     inkscape:window-height="1094"
     inkscape:window-x="-11"
     inkscape:window-y="-11"
     inkscape:window-maximized="1"
     inkscape:current-layer="layer1" />
  <defs
     id="defs1659" />
  <g
     inkscape:label="Layer 1"
     inkscape:groupmode="layer"
     id="layer1"
     transform="translate(5.4120467e-6,-0.41728436)">
    <path
       style="fill:#ffffff;fill-opacity:1;stroke:#000000;stroke-width:1.0005;stroke-linecap:round;stroke-dasharray:none;stroke-opacity:1"
       d="M 15.633009,6.2207726 C 6.8122182,6.4157067 1.3989812,13.06198 1.0648539,23.800485 0.9135941,28.661825 -0.74167808,34.646782 2.4390077,38.326737 6.6285028,43.173855 14.717383,42.474949 21.111234,42.890525 31.56741,43.570136 31.780592,40.886352 35.302222,37.203323 40.209618,32.071019 41.542453,24.194064 42.331848,17.095184 43.356662,7.8792035 39.527093,5.4579519 35.6023,4.2146236 31.891814,3.0391807 27.843775,2.5248914 23.985159,3.0356096 21.03124,3.4265842 17.394498,5.3413408 15.633009,6.2207726 Z"
       id="path6239"
       sodipodi:nodetypes="csasassac" />
    <path
       style="fill:none;fill-opacity:0.434316;stroke:#000000;stroke-width:1.0005;stroke-linecap:round;stroke-dasharray:none;stroke-opacity:1"
       d="m 4.9741794,22.336359 c 1.2034362,1.896435 2.7868776,4.588542 5.4644466,3.642587 2.893946,-0.116526 2.036336,3.110776 2.31022,4.938425 0.548417,2.483664 0.217716,5.153338 1.150785,7.534493"
       id="path6304" />
    <path
       style="fill:none;fill-opacity:0.434316;stroke:#000000;stroke-width:1.0005;stroke-linecap:round;stroke-dasharray:none;stroke-opacity:1"
       d="M 7.1406091,25.802077 C 6.2800718,26.720965 5.6338652,27.80984 4.9936916,28.88591 4.9583632,28.926551 4.9229572,28.96723 4.88759,29.00787"
       id="path6306" />
    <path
       style="fill:none;fill-opacity:0.434316;stroke:#000000;stroke-width:1.0005;stroke-linecap:round;stroke-dasharray:none;stroke-opacity:1"
       d="m 21.179068,8.3002023 c -0.549566,3.4078977 -0.185338,6.8603557 0.25452,10.2494887 0.324439,2.499955 -0.721918,5.127953 3.642042,5.199161 2.448691,0.03994 4.472363,0.124133 7.2685,-1.071346 1.246214,-0.875912 2.681933,-1.708341 3.393109,-3.113591"
       id="path6308"
       sodipodi:nodetypes="csscc" />
    <path
       style="fill:none;fill-opacity:0.434316;stroke:#000000;stroke-width:1.0005;stroke-linecap:round;stroke-dasharray:none;stroke-opacity:1"
       d="m 29.92002,24.062159 c 0.380227,1.356427 2.301769,2.652494 3.309125,4.087003 0.442226,0.629744 0.881443,1.482176 1.194456,1.975454"
       id="path6310"
       sodipodi:nodetypes="cac" />
    <path
       style="fill:none;fill-opacity:0.434316;stroke:#000000;stroke-width:1.0005;stroke-linecap:round;stroke-dasharray:none;stroke-opacity:1"
       d="m 24.59714,13.056856 c -1.682878,0.796187 -1.009623,1.914407 -2.638107,2.781228"
       id="path6312"
       sodipodi:nodetypes="cc" />
    <path
       style="fill:none;fill-opacity:0.434316;stroke:#000000;stroke-width:1.0005;stroke-linecap:round;stroke-dasharray:none;stroke-opacity:1"
       d="m 18.039365,24.013907 c 1.437624,0.247685 2.825218,-0.491105 3.92152,-1.347938"
       id="path6368" />
  </g>
</svg>
