<?xml version="1.0" encoding="UTF-8" standalone="no"?>
<!-- Created with Inkscape (http://www.inkscape.org/) -->

<svg
   width="28"
   height="45"
   viewBox="0 0 28 45"
   version="1.1"
   id="svg1662"
   inkscape:version="1.2 (dc2aedaf03, 2022-05-15)"
   sodipodi:docname="occlusal_u_2.svg"
   xmlns:inkscape="http://www.inkscape.org/namespaces/inkscape"
   xmlns:sodipodi="http://sodipodi.sourceforge.net/DTD/sodipodi-0.dtd"
   xmlns="http://www.w3.org/2000/svg"
   xmlns:svg="http://www.w3.org/2000/svg">
  <sodipodi:namedview
     id="namedview1664"
     pagecolor="#505050"
     bordercolor="#eeeeee"
     borderopacity="1"
     inkscape:showpageshadow="0"
     inkscape:pageopacity="0"
     inkscape:pagecheckerboard="0"
     inkscape:deskcolor="#505050"
     inkscape:document-units="mm"
     showgrid="false"
     inkscape:zoom="26.910887"
     inkscape:cx="-1.3749082"
     inkscape:cy="19.80611"
     inkscape:window-width="1920"
     inkscape:window-height="1094"
     inkscape:window-x="-11"
     inkscape:window-y="-11"
     inkscape:window-maximized="1"
     inkscape:current-layer="layer1" />
  <defs
     id="defs1659" />
  <g
     inkscape:label="Layer 1"
     inkscape:groupmode="layer"
     id="layer1"
     transform="translate(-3.854466e-7,-0.9792125)">
    <path
       id="path599"
       style="fill:#ffffff;fill-opacity:1;stroke:#000000;stroke-width:1.00004;stroke-linecap:round;stroke-dasharray:none"
       d="m 27.49998,21.159211 c 0,2.929472 -2.899495,6.580065 -5.468597,8.499832 -2.569106,1.919771 -5.26195,6.220869 -9.164965,5.852917 C 10.880597,35.324754 8.8607025,33.247876 6.2599828,31.28153 4.4234362,29.892958 1.0617932,26.688809 0.54177108,22.719294 0.16126994,19.81464 2.5052146,15.952019 5.0743208,14.032248 7.643427,12.112477 10.19416,11.424301 14.114485,11.424301 c 3.92032,0 8.155941,0.313763 10.725047,2.233531 2.569106,1.919771 2.660452,4.571908 2.660448,7.501379 z"
       sodipodi:nodetypes="sssssssss" />
    <path
       style="fill:none;fill-opacity:0.434316;stroke:#000000;stroke-width:1.00004;stroke-linecap:round;stroke-dasharray:none"
       d="m 6.158069,24.591392 c 2.0863671,-0.709775 4.159739,-2.089301 6.48994,-2.121717"
       id="path602"
       sodipodi:nodetypes="cc" />
  </g>
</svg>
