<?xml version="1.0" encoding="UTF-8" standalone="no"?>
<!-- Created with Inkscape (http://www.inkscape.org/) -->

<svg
   width="28"
   height="45"
   viewBox="0 0 28 45"
   version="1.1"
   id="svg1662"
   inkscape:version="1.2 (dc2aedaf03, 2022-05-15)"
   sodipodi:docname="occlusal_u_4.svg"
   xmlns:inkscape="http://www.inkscape.org/namespaces/inkscape"
   xmlns:sodipodi="http://sodipodi.sourceforge.net/DTD/sodipodi-0.dtd"
   xmlns="http://www.w3.org/2000/svg"
   xmlns:svg="http://www.w3.org/2000/svg">
  <sodipodi:namedview
     id="namedview1664"
     pagecolor="#505050"
     bordercolor="#eeeeee"
     borderopacity="1"
     inkscape:showpageshadow="0"
     inkscape:pageopacity="0"
     inkscape:pagecheckerboard="0"
     inkscape:deskcolor="#505050"
     inkscape:document-units="mm"
     showgrid="false"
     inkscape:zoom="26.910887"
     inkscape:cx="2.3782196"
     inkscape:cy="5.1280361"
     inkscape:window-width="1920"
     inkscape:window-height="1094"
     inkscape:window-x="-11"
     inkscape:window-y="-11"
     inkscape:window-maximized="1"
     inkscape:current-layer="layer1" />
  <defs
     id="defs1659" />
  <g
     inkscape:label="Layer 1"
     inkscape:groupmode="layer"
     id="layer1"
     transform="translate(0,-0.49735641)">
    <g
       id="g2055"
       style="display:inline;stroke-width:0.281095;stroke-dasharray:none"
       transform="matrix(3.5576428,0,0,3.5576428,-139.42334,-36.308835)">
      <path
         id="path8647"
         style="opacity:1;fill:none;fill-opacity:0.434316;stroke:#000000;stroke-width:0.281095;stroke-linecap:round;stroke-dasharray:none"
         d="m 46.919642,15.491071 c 0,1.39304 -0.578305,1.113764 -1.015137,3.221119 -0.283384,1.367097 -1.331682,2.827988 -2.734862,2.827989 -2.292968,0 -3.839286,-3.530885 -3.839286,-6.316965 0,-2.786079 2.55243,-3.301203 3.794643,-3.415179 1.172816,-0.107608 3.794642,0.896957 3.794642,3.683036 z"
         sodipodi:nodetypes="ssssss" />
      <path
         style="opacity:1;fill:none;fill-opacity:0.434316;stroke:#000000;stroke-width:0.281095;stroke-linecap:round;stroke-dasharray:none;stroke-opacity:1"
         d="m 40.848214,15.870536 c 0.284596,0.393701 0.864307,0.814127 0.577629,1.36366 -0.121783,0.272165 -0.337683,0.507784 -0.376777,0.812648"
         id="path10106" />
      <path
         style="opacity:1;fill:none;fill-opacity:0.434316;stroke:#000000;stroke-width:0.281095;stroke-linecap:round;stroke-dasharray:none;stroke-opacity:1"
         d="m 45.334822,16.25 c -0.328647,0.364902 -0.970837,0.601894 -0.978849,1.151402 0.03147,0.355919 0.266612,0.658232 0.532386,0.879845"
         id="path10108" />
      <path
         style="opacity:1;fill:none;fill-opacity:0.434316;stroke:#000000;stroke-width:0.281095;stroke-linecap:round;stroke-dasharray:none;stroke-opacity:1"
         d="m 41.551339,16.830357 c 0.556737,0.177797 1.152782,0.08584 1.724794,0.165871 0.368855,0.05161 0.75936,0.08626 1.098859,0.202405"
         id="path10110"
         sodipodi:nodetypes="cac" />
    </g>
  </g>
</svg>
