<?xml version="1.0" encoding="UTF-8" standalone="no"?>
<!-- Created with Inkscape (http://www.inkscape.org/) -->

<svg
   width="1.6740199"
   height="1.6560082"
   viewBox="0 0 1.6740199 1.6560082"
   version="1.1"
   id="svg1662"
   inkscape:version="1.2 (dc2aedaf03, 2022-05-15)"
   sodipodi:docname="occlusal_l_2.svg"
   xmlns:inkscape="http://www.inkscape.org/namespaces/inkscape"
   xmlns:sodipodi="http://sodipodi.sourceforge.net/DTD/sodipodi-0.dtd"
   xmlns="http://www.w3.org/2000/svg"
   xmlns:svg="http://www.w3.org/2000/svg">
  <sodipodi:namedview
     id="namedview1664"
     pagecolor="#505050"
     bordercolor="#eeeeee"
     borderopacity="1"
     inkscape:showpageshadow="0"
     inkscape:pageopacity="0"
     inkscape:pagecheckerboard="0"
     inkscape:deskcolor="#505050"
     inkscape:document-units="mm"
     showgrid="false"
     inkscape:zoom="26.910887"
     inkscape:cx="6.1313475"
     inkscape:cy="4.905078"
     inkscape:window-width="1920"
     inkscape:window-height="1094"
     inkscape:window-x="-11"
     inkscape:window-y="-11"
     inkscape:window-maximized="1"
     inkscape:current-layer="g753" />
  <defs
     id="defs1659" />
  <g
     inkscape:label="Layer 1"
     inkscape:groupmode="layer"
     id="layer1"
     transform="translate(-1.5035416e-8,-1.0240792)">
    <g
       id="g753"
       style="display:inline"
       transform="matrix(0.26458333,0,0,0.26458333,-9.7847388,-7.8630452)">
      <g
         id="g783"
         style="display:inline"
         transform="translate(-22.923448,-0.75908201)">
        <path
           id="path776"
           style="fill:none;fill-opacity:0.434316;stroke:#000000;stroke-width:0.5;stroke-linecap:round"
           d="m 65.982143,38.058036 c 0,0.788978 -0.154045,1.079156 -0.763992,1.596198 -0.609947,0.517041 -1.162402,0.702909 -2.09315,0.702909 -0.930748,0 -1.795703,-0.386761 -2.40565,-0.903802 -0.609947,-0.517041 -0.5631,-1.454541 -0.5631,-2.24352 0,-0.788978 0.399582,-1.190764 1.009529,-1.707805 0.609947,-0.517041 0.983831,-0.903802 1.914578,-0.903802 0.930748,0 1.371596,1.011761 1.981543,1.528802 0.609947,0.517042 0.920242,1.142042 0.920242,1.93102 z"
           sodipodi:nodetypes="sssssssss" />
        <path
           style="fill:none;fill-opacity:0.434316;stroke:#000000;stroke-width:0.5;stroke-linecap:round"
           d="m 61.205357,37.232143 c 0.525977,-0.04958 1.044067,0.0732 1.562498,0.133908"
           id="path779" />
      </g>
    </g>
  </g>
</svg>
