<?xml version="1.0" encoding="UTF-8" standalone="no"?>
<!-- Created with Inkscape (http://www.inkscape.org/) -->

<svg
   width="44"
   height="45"
   viewBox="0 0 44 44.999999"
   version="1.1"
   id="svg1662"
   inkscape:version="1.2 (dc2aedaf03, 2022-05-15)"
   sodipodi:docname="occlusal_l_8.svg"
   xmlns:inkscape="http://www.inkscape.org/namespaces/inkscape"
   xmlns:sodipodi="http://sodipodi.sourceforge.net/DTD/sodipodi-0.dtd"
   xmlns="http://www.w3.org/2000/svg"
   xmlns:svg="http://www.w3.org/2000/svg">
  <sodipodi:namedview
     id="namedview1664"
     pagecolor="#505050"
     bordercolor="#eeeeee"
     borderopacity="1"
     inkscape:showpageshadow="0"
     inkscape:pageopacity="0"
     inkscape:pagecheckerboard="0"
     inkscape:deskcolor="#505050"
     inkscape:document-units="mm"
     showgrid="false"
     inkscape:zoom="26.910887"
     inkscape:cx="-1.3749082"
     inkscape:cy="4.9793974"
     inkscape:window-width="1920"
     inkscape:window-height="1094"
     inkscape:window-x="-11"
     inkscape:window-y="-11"
     inkscape:window-maximized="1"
     inkscape:current-layer="layer1" />
  <defs
     id="defs1659" />
  <g
     inkscape:label="Layer 1"
     inkscape:groupmode="layer"
     id="layer1"
     transform="translate(0,-0.62156139)">
    <path
       id="path679"
       style="fill:#ffffff;fill-opacity:1;stroke:#000000;stroke-width:1.00047;stroke-linecap:round;stroke-dasharray:none"
       d="m 43.499762,22.744641 c 0,4.704112 -1.323104,10.783429 -5.284391,13.866174 -3.96129,3.082746 -9.43376,3.602383 -15.478483,3.602383 -6.044724,0 -10.303497,-2.686953 -14.2647864,-5.769698 -3.9612894,-3.082746 -7.97186383,-9.248754 -7.97186383,-13.952866 0,-4.704112 2.79687853,-9.04958 6.75816753,-12.1323253 C 11.219694,5.275563 16.692164,6.1430082 22.736888,6.1430082 c 6.044723,0 10.650267,0.5196367 14.611554,3.6023825 3.961291,3.0827453 6.15132,8.2951383 6.15132,12.9992503 z"
       sodipodi:nodetypes="sssssssss" />
    <path
       style="fill:none;fill-opacity:0.434316;stroke:#000000;stroke-width:1.00047;stroke-linecap:round;stroke-dasharray:none"
       d="m 5.7884867,18.886827 c 2.707366,-0.7715 4.7108753,3.16027 2.8235037,5.074745 -0.384763,0.499379 -0.9677198,0.877621 -1.6098129,0.906975"
       id="path682" />
    <path
       style="fill:none;fill-opacity:0.434316;stroke:#000000;stroke-width:1.00047;stroke-linecap:round;stroke-dasharray:none"
       d="m 35.610736,22.007758 c -2.372452,0.301424 -3.911151,3.684669 -1.642661,5.171383 0.580139,0.492738 1.260007,0.843249 1.902699,1.243738"
       id="path684" />
    <path
       style="fill:none;fill-opacity:0.434316;stroke:#000000;stroke-width:1.00047;stroke-linecap:round;stroke-dasharray:none"
       d="m 22.260079,10.477644 c -0.441999,3.597834 0.01693,7.246399 -0.520123,10.836575"
       id="path686" />
    <path
       style="fill:none;fill-opacity:0.434316;stroke:#000000;stroke-width:1.00047;stroke-linecap:round;stroke-dasharray:none"
       d="m 21.046382,26.775852 c -0.546894,2.947647 -0.98714,5.926807 -1.040292,8.929317"
       id="path688" />
    <path
       style="fill:none;fill-opacity:0.434316;stroke:#000000;stroke-width:1.00047;stroke-linecap:round;stroke-dasharray:none"
       d="m 9.5162679,21.574296 c 4.0984641,1.503802 8.2102151,3.988062 12.4649621,1.798834 3.627887,0.492954 7.111435,2.008276 10.832064,1.575327 l 0.109987,0.0066"
       id="path690" />
  </g>
</svg>
