<?xml version="1.0" encoding="UTF-8" standalone="no"?>
<!-- Created with Inkscape (http://www.inkscape.org/) -->

<svg
   width="28"
   height="45"
   viewBox="0 0 28.000001 45.000001"
   version="1.1"
   id="svg1662"
   inkscape:version="1.2 (dc2aedaf03, 2022-05-15)"
   sodipodi:docname="occlusal_l_3.svg"
   xmlns:inkscape="http://www.inkscape.org/namespaces/inkscape"
   xmlns:sodipodi="http://sodipodi.sourceforge.net/DTD/sodipodi-0.dtd"
   xmlns="http://www.w3.org/2000/svg"
   xmlns:svg="http://www.w3.org/2000/svg">
  <sodipodi:namedview
     id="namedview1664"
     pagecolor="#505050"
     bordercolor="#eeeeee"
     borderopacity="1"
     inkscape:showpageshadow="0"
     inkscape:pageopacity="0"
     inkscape:pagecheckerboard="0"
     inkscape:deskcolor="#505050"
     inkscape:document-units="mm"
     showgrid="false"
     inkscape:zoom="26.910887"
     inkscape:cx="-1.3749082"
     inkscape:cy="18.877118"
     inkscape:window-width="1920"
     inkscape:window-height="1094"
     inkscape:window-x="-11"
     inkscape:window-y="-11"
     inkscape:window-maximized="1"
     inkscape:current-layer="g753" />
  <defs
     id="defs1659" />
  <g
     inkscape:label="Layer 1"
     inkscape:groupmode="layer"
     id="layer1"
     transform="translate(1.107723e-7,-0.7258324)">
    <g
       id="g753"
       style="display:inline"
       transform="matrix(0.26458333,0,0,0.26458333,-9.7847388,-7.8630452)">
      <path
         id="path767"
         style="fill:#ffffff;fill-opacity:1;stroke:#000000;stroke-width:3.77966;stroke-linecap:round;stroke-dasharray:none"
         d="m 140.91863,124.27432 c 0,14.13133 -8.6011,16.99107 -17.15361,26.25175 -8.55251,9.26068 -24.883079,21.00901 -37.933777,21.00901 -13.050697,0 -23.661786,-9.03911 -32.214298,-18.29979 -8.552525,-9.2607 -14.745426,-18.1409 -14.745426,-32.27224 0,-14.13133 1.075498,-24.51664 18.056694,-42.507038 8.652805,-9.167035 17.357451,-14.988536 30.408148,-14.988536 13.050709,0 22.758729,13.554475 31.311239,22.815157 8.55253,9.260695 22.27103,23.860357 22.27103,37.991687 z"
         sodipodi:nodetypes="sssssssss" />
      <path
         style="fill:none;fill-opacity:0.434316;stroke:#000000;stroke-width:3.77966;stroke-linecap:round;stroke-dasharray:none"
         d="m 51.213506,112.83541 c 9.14848,1.1842 18.148007,3.5158 27.393126,3.91418"
         id="path770" />
    </g>
  </g>
</svg>
