<?xml version="1.0" encoding="UTF-8" standalone="no"?>
<!-- Created with Inkscape (http://www.inkscape.org/) -->

<svg
   width="40"
   height="45"
   viewBox="0 0 40.000001 45"
   version="1.1"
   id="svg1662"
   inkscape:version="1.2 (dc2aedaf03, 2022-05-15)"
   sodipodi:docname="occlusal_u_8.svg"
   xmlns:inkscape="http://www.inkscape.org/namespaces/inkscape"
   xmlns:sodipodi="http://sodipodi.sourceforge.net/DTD/sodipodi-0.dtd"
   xmlns="http://www.w3.org/2000/svg"
   xmlns:svg="http://www.w3.org/2000/svg">
  <sodipodi:namedview
     id="namedview1664"
     pagecolor="#505050"
     bordercolor="#eeeeee"
     borderopacity="1"
     inkscape:showpageshadow="0"
     inkscape:pageopacity="0"
     inkscape:pagecheckerboard="0"
     inkscape:deskcolor="#505050"
     inkscape:document-units="mm"
     showgrid="false"
     inkscape:zoom="13.455444"
     inkscape:cx="-1.1147904"
     inkscape:cy="14.343637"
     inkscape:window-width="1920"
     inkscape:window-height="1094"
     inkscape:window-x="-11"
     inkscape:window-y="-11"
     inkscape:window-maximized="1"
     inkscape:current-layer="layer1"
     showguides="false" />
  <defs
     id="defs1659" />
  <g
     inkscape:label="Layer 1"
     inkscape:groupmode="layer"
     id="layer1"
     transform="translate(0.02727482,4.1484538)">
    <g
       id="g4221"
       transform="matrix(4.2247418,0,0,4.2247418,-81.703288,-33.70175)"
       style="display:inline;fill:#ffffff;stroke-width:0.236706;stroke-dasharray:none">
      <path
         style="opacity:1;fill:#ffffff;stroke:#000000;stroke-width:0.236706;stroke-dasharray:none;stroke-opacity:1"
         d="M 23.271882,8.4086494 C 22.64892,8.6145697 21.896195,8.649433 21.344746,9.0351133 20.793297,9.4207937 20.55473,10.095907 20.178832,10.633667 c -0.274814,0.393149 -0.401106,0.859978 -0.538603,1.336341 -0.137496,0.476363 -0.230392,0.939939 -0.170556,1.415867 0.06423,0.510891 0.05499,1.097144 0.317996,1.564364 0.263004,0.467221 0.547136,0.664739 0.963738,0.967357 0.257938,0.187365 0.810939,0.209609 1.146878,0.314781 0.335938,0.105172 0.650127,0.466263 0.977319,0.538912 0.654384,0.145297 1.254751,0.342183 1.867058,0.164335 0.559685,-0.162563 1.140741,-0.303215 1.549301,-0.748847 0.408561,-0.445633 0.683688,-1.196246 0.99982,-1.685873 0.337717,-0.523058 0.567182,-1.157292 0.800491,-1.749445 0.233309,-0.592154 0.248645,-0.851158 0.38829,-1.457905 0.10854,-0.471602 0.295033,-1.286053 0.144794,-1.7642375 C 28.47512,9.0511318 28.027214,8.5130081 27.637047,8.2480786 27.072764,7.8649206 26.658236,7.5817904 25.938278,7.6432792 25.21832,7.704768 23.919494,8.1945812 23.271882,8.4086494 Z"
         id="path718"
         sodipodi:nodetypes="ssssssssssssssssss" />
      <path
         style="opacity:1;fill:#ffffff;stroke:#000000;stroke-width:0.236706;stroke-linecap:round;stroke-dasharray:none;stroke-opacity:1"
         d="m 21.160714,11.5625 c 0.06747,0.05899 0.119626,0.133986 0.19027,0.189343 0.06497,0.07012 0.130338,0.139663 0.193235,0.211639 0.01283,0.01559 0.03039,0.02793 0.04057,0.04545"
         id="path2004" />
      <path
         style="opacity:1;fill:#ffffff;stroke:#000000;stroke-width:0.236706;stroke-linecap:round;stroke-dasharray:none;stroke-opacity:1"
         d="m 24.107143,10.435268 c -0.003,0.367742 0.0015,0.737217 -0.03301,1.103372 -0.03298,0.160651 -0.148593,0.355409 -0.01043,0.498173 0.176781,0.09606 0.369012,0.164858 0.560516,0.223951 0.199064,0.03808 0.410951,0.0037 0.598848,0.09431 0.145903,0.04801 0.293731,0.134155 0.450541,0.117631 0.20962,-0.06385 0.317165,-0.274785 0.48421,-0.401019 0.213071,-0.176243 0.503415,-0.18627 0.753564,-0.280392 0.148809,-0.03846 0.305497,-0.06938 0.432288,-0.1618"
         id="path2006" />
      <path
         style="opacity:1;fill:#ffffff;stroke:#000000;stroke-width:0.236706;stroke-linecap:round;stroke-dasharray:none;stroke-opacity:1"
         d="m 25.714286,12.522321 c 0.106661,0.303859 0.22373,0.604736 0.368229,0.892835"
         id="path2008" />
      <path
         style="opacity:1;fill:#ffffff;stroke:#000000;stroke-width:0.236706;stroke-linecap:round;stroke-dasharray:none;stroke-opacity:1"
         d="m 22.756697,12.433036 c -0.278889,0.01487 -0.558117,0.02596 -0.836593,0.03013 -0.20097,0.09617 -0.241066,0.3912 -0.306785,0.594773 0.07842,0.371284 0.132496,0.751798 0.209695,1.125162 0.01242,0.08036 0.0227,0.161066 0.02969,0.242086"
         id="path2012" />
      <path
         style="opacity:1;fill:#ffffff;stroke:#000000;stroke-width:0.236706;stroke-linecap:round;stroke-dasharray:none;stroke-opacity:1"
         d="m 20.965402,12.756696 c 0.231145,0.03676 0.469557,0.09773 0.652927,0.251143"
         id="path2014" />
    </g>
  </g>
</svg>
